  0
SECTION
  2
HEADER
  9
$ACADVER
  1
AC1014
  9
$HANDSEED
  5
FFFF
  9
$MEASUREMENT
 70
     1
  0
ENDSEC
  0
SECTION
  2
TABLES
  0
TABLE
  2
VPORT
  5
8
330
0
100
AcDbSymbolTable
 70
     4
  0
VPORT
  5
2E
330
8
100
AcDbSymbolTableRecord
100
AcDbViewportTableRecord
  2
*ACTIVE
 70
     0
 10
0.0
 20
0.0
 11
1.0
 21
1.0
 12
210.0
 22
148.5
 13
0.0
 23
0.0
 14
10.0
 24
10.0
 15
10.0
 25
10.0
 16
0.0
 26
0.0
 36
1.0
 17
0.0
 27
0.0
 37
0.0
 40
341.0
 41
1.24
 42
50.0
 43
0.0
 44
0.0
 50
0.0
 51
0.0
 71
     0
 72
   100
 73
     1
 74
     3
 75
     0
 76
     0
 77
     0
 78
     0
  0
ENDTAB
  0
TABLE
  2
LTYPE
  5
5
330
0
100
AcDbSymbolTable
 70
     1
  0
LTYPE
  5
14
330
5
100
AcDbSymbolTableRecord
100
AcDbLinetypeTableRecord
  2
BYBLOCK
 70
     0
  3

 72
    65
 73
     0
 40
0.0
  0
LTYPE
  5
15
330
5
100
AcDbSymbolTableRecord
100
AcDbLinetypeTableRecord
  2
BYLAYER
 70
     0
  3

 72
    65
 73
     0
 40
0.0
  0
LTYPE
  5
16
330
5
100
AcDbSymbolTableRecord
100
AcDbLinetypeTableRecord
  2
CONTINUOUS
 70
     0
  3
Solid line
 72
    65
 73
     0
 40
0.0
  0
ENDTAB
  0
TABLE
  2
LAYER
  5
2
100
AcDbSymbolTable
 70
1
  0
LAYER
  5
50
100
AcDbSymbolTableRecord
100
AcDbLayerTableRecord
  2
0
 70
0
  6
CONTINUOUS
  0
ENDTAB
  0
TABLE
  2
STYLE
  5
3
330
0
100
AcDbSymbolTable
 70
     1
  0
STYLE
  5
11
330
3
100
AcDbSymbolTableRecord
100
AcDbTextStyleTableRecord
  2
STANDARD
 70
     0
 40
0.0
 41
1.0
 50
0.0
 71
     0
 42
2.5
  3
txt
  4

  0
ENDTAB
  0
TABLE
  2
VIEW
  5
6
330
0
100
AcDbSymbolTable
 70
     0
  0
ENDTAB
  0
TABLE
  2
UCS
  5
7
330
0
100
AcDbSymbolTable
 70
     0
  0
ENDTAB
  0
TABLE
  2
APPID
  5
9
330
0
100
AcDbSymbolTable
 70
     2
  0
APPID
  5
12
330
9
100
AcDbSymbolTableRecord
100
AcDbRegAppTableRecord
  2
ACAD
 70
     0
  0
ENDTAB
  0
TABLE
  2
DIMSTYLE
  5
A
330
0
100
AcDbSymbolTable
 70
     1
  0
DIMSTYLE
105
27
330
A
100
AcDbSymbolTableRecord
100
AcDbDimStyleTableRecord
  2
ISO-25
 70
     0
  3

  4

  5

  6

  7

 40
1.0
 41
2.5
 42
0.625
 43
3.75
 44
1.25
 45
0.0
 46
0.0
 47
0.0
 48
0.0
140
2.5
141
2.5
142
0.0
143
0.03937007874016
144
1.0
145
0.0
146
1.0
147
0.625
 71
     0
 72
     0
 73
     0
 74
     0
 75
     0
 76
     0
 77
     1
 78
     8
170
     0
171
     3
172
     1
173
     0
174
     0
175
     0
176
     0
177
     0
178
     0
270
     2
271
     2
272
     2
273
     2
274
     3
340
11
275
     0
280
     0
281
     0
282
     0
283
     0
284
     8
285
     0
286
     0
287
     3
288
     0
  0
ENDTAB
  0
TABLE
  2
BLOCK_RECORD
  5
1
330
0
100
AcDbSymbolTable
 70
     1
  0
BLOCK_RECORD
  5
1F
330
1
100
AcDbSymbolTableRecord
100
AcDbBlockTableRecord
  2
*MODEL_SPACE
  0
BLOCK_RECORD
  5
1B
330
1
100
AcDbSymbolTableRecord
100
AcDbBlockTableRecord
  2
*PAPER_SPACE
  0
ENDTAB
  0
ENDSEC
  0
SECTION
  2
BLOCKS
  0
BLOCK
  5
20
330
1F
100
AcDbEntity
  8
0
100
AcDbBlockBegin
  2
*MODEL_SPACE
 70
     0
 10
0.0
 20
0.0
 30
0.0
  3
*MODEL_SPACE
  1

  0
ENDBLK
  5
21
330
1F
100
AcDbEntity
  8
0
100
AcDbBlockEnd
  0
BLOCK
  5
1C
330
1B
100
AcDbEntity
 67
     1
  8
0
100
AcDbBlockBegin
  2
*PAPER_SPACE
  1

  0
ENDBLK
  5
1D
330
1B
100
AcDbEntity
 67
     1
  8
0
100
AcDbBlockEnd
  0
ENDSEC
  0
SECTION
  2
ENTITIES
  0
LWPOLYLINE
  5
100
100
AcDbEntity
  8
0
 62
5
100
AcDbPolyline
 90
4
 70
1
 10
9.736622
 20
9.736610
 30
0.0
 10
230.963380
 20
9.736610
 30
0.0
 10
230.963380
 20
230.973390
 30
0.0
 10
9.736622
 20
230.973390
 30
0.0
  0
LWPOLYLINE
  5
101
100
AcDbEntity
  8
0
 62
5
100
AcDbPolyline
 90
4
 70
1
 10
118.862140
 20
227.480753
 30
0.0
 10
118.862140
 20
213.746693
 30
0.0
 10
100.116140
 20
213.746693
 30
0.0
 10
100.116140
 20
227.480753
 30
0.0
  0
LWPOLYLINE
  5
102
100
AcDbEntity
  8
0
 62
5
100
AcDbPolyline
 90
4
 70
1
 10
118.862140
 20
194.061179
 30
0.0
 10
118.862140
 20
180.327118
 30
0.0
 10
100.116140
 20
180.327118
 30
0.0
 10
100.116140
 20
194.061179
 30
0.0
  0
LWPOLYLINE
  5
103
100
AcDbEntity
  8
0
 62
5
100
AcDbPolyline
 90
4
 70
1
 10
118.862140
 20
127.222030
 30
0.0
 10
118.862140
 20
113.487970
 30
0.0
 10
100.116140
 20
113.487970
 30
0.0
 10
100.116140
 20
127.222030
 30
0.0
  0
LWPOLYLINE
  5
104
100
AcDbEntity
  8
0
 62
5
100
AcDbPolyline
 90
4
 70
1
 10
118.862140
 20
60.382880
 30
0.0
 10
118.862140
 20
46.648820
 30
0.0
 10
100.116140
 20
46.648820
 30
0.0
 10
100.116140
 20
60.382880
 30
0.0
  0
LWPOLYLINE
  5
105
100
AcDbEntity
  8
0
 62
5
100
AcDbPolyline
 90
4
 70
1
 10
118.862140
 20
26.963310
 30
0.0
 10
118.862140
 20
13.229250
 30
0.0
 10
100.116140
 20
13.229250
 30
0.0
 10
100.116140
 20
26.963310
 30
0.0
  0
LWPOLYLINE
  5
106
100
AcDbEntity
  8
0
 62
5
100
AcDbPolyline
 90
4
 70
1
 10
118.862140
 20
43.673090
 30
0.0
 10
118.862140
 20
29.939030
 30
0.0
 10
100.116140
 20
29.939030
 30
0.0
 10
100.116140
 20
43.673090
 30
0.0
  0
LWPOLYLINE
  5
107
100
AcDbEntity
  8
0
 62
5
100
AcDbPolyline
 90
4
 70
1
 10
118.862140
 20
77.092670
 30
0.0
 10
118.862140
 20
63.358610
 30
0.0
 10
100.116140
 20
63.358610
 30
0.0
 10
100.116140
 20
77.092670
 30
0.0
  0
LWPOLYLINE
  5
108
100
AcDbEntity
  8
0
 62
5
100
AcDbPolyline
 90
4
 70
1
 10
118.862140
 20
93.802460
 30
0.0
 10
118.862140
 20
80.068400
 30
0.0
 10
100.116140
 20
80.068400
 30
0.0
 10
100.116140
 20
93.802460
 30
0.0
  0
LWPOLYLINE
  5
109
100
AcDbEntity
  8
0
 62
5
100
AcDbPolyline
 90
4
 70
1
 10
118.862140
 20
110.512240
 30
0.0
 10
118.862140
 20
96.778180
 30
0.0
 10
100.116140
 20
96.778180
 30
0.0
 10
100.116140
 20
110.512240
 30
0.0
  0
LWPOLYLINE
  5
10a
100
AcDbEntity
  8
0
 62
5
100
AcDbPolyline
 90
4
 70
1
 10
118.862140
 20
143.931817
 30
0.0
 10
118.862140
 20
130.197760
 30
0.0
 10
100.116140
 20
130.197760
 30
0.0
 10
100.116140
 20
143.931817
 30
0.0
  0
LWPOLYLINE
  5
10b
100
AcDbEntity
  8
0
 62
5
100
AcDbPolyline
 90
4
 70
1
 10
118.862140
 20
160.641604
 30
0.0
 10
118.862140
 20
146.907544
 30
0.0
 10
100.116140
 20
146.907544
 30
0.0
 10
100.116140
 20
160.641604
 30
0.0
  0
LWPOLYLINE
  5
10c
100
AcDbEntity
  8
0
 62
5
100
AcDbPolyline
 90
4
 70
1
 10
118.862140
 20
177.351391
 30
0.0
 10
118.862140
 20
163.617331
 30
0.0
 10
100.116140
 20
163.617331
 30
0.0
 10
100.116140
 20
177.351391
 30
0.0
  0
LWPOLYLINE
  5
10d
100
AcDbEntity
  8
0
 62
5
100
AcDbPolyline
 90
4
 70
1
 10
118.862140
 20
210.770966
 30
0.0
 10
118.862140
 20
197.036906
 30
0.0
 10
100.116140
 20
197.036906
 30
0.0
 10
100.116140
 20
210.770966
 30
0.0
  0
LWPOLYLINE
  5
10e
100
AcDbEntity
  8
0
 62
5
100
AcDbPolyline
 90
4
 70
1
 10
97.140416
 20
227.480753
 30
0.0
 10
97.140416
 20
213.746693
 30
0.0
 10
78.394422
 20
213.746693
 30
0.0
 10
78.394422
 20
227.480753
 30
0.0
  0
LWPOLYLINE
  5
10f
100
AcDbEntity
  8
0
 62
5
100
AcDbPolyline
 90
4
 70
1
 10
97.140416
 20
194.061179
 30
0.0
 10
97.140416
 20
180.327118
 30
0.0
 10
78.394422
 20
180.327118
 30
0.0
 10
78.394422
 20
194.061179
 30
0.0
  0
LWPOLYLINE
  5
110
100
AcDbEntity
  8
0
 62
5
100
AcDbPolyline
 90
4
 70
1
 10
97.140416
 20
127.222030
 30
0.0
 10
97.140416
 20
113.487970
 30
0.0
 10
78.394422
 20
113.487970
 30
0.0
 10
78.394422
 20
127.222030
 30
0.0
  0
LWPOLYLINE
  5
111
100
AcDbEntity
  8
0
 62
5
100
AcDbPolyline
 90
4
 70
1
 10
97.140416
 20
60.382880
 30
0.0
 10
97.140416
 20
46.648820
 30
0.0
 10
78.394422
 20
46.648820
 30
0.0
 10
78.394422
 20
60.382880
 30
0.0
  0
LWPOLYLINE
  5
112
100
AcDbEntity
  8
0
 62
5
100
AcDbPolyline
 90
4
 70
1
 10
97.140416
 20
26.963310
 30
0.0
 10
97.140416
 20
13.229250
 30
0.0
 10
78.394422
 20
13.229250
 30
0.0
 10
78.394422
 20
26.963310
 30
0.0
  0
LWPOLYLINE
  5
113
100
AcDbEntity
  8
0
 62
5
100
AcDbPolyline
 90
4
 70
1
 10
97.140416
 20
43.673090
 30
0.0
 10
97.140416
 20
29.939030
 30
0.0
 10
78.394422
 20
29.939030
 30
0.0
 10
78.394422
 20
43.673090
 30
0.0
  0
LWPOLYLINE
  5
114
100
AcDbEntity
  8
0
 62
5
100
AcDbPolyline
 90
4
 70
1
 10
97.140416
 20
77.092670
 30
0.0
 10
97.140416
 20
63.358610
 30
0.0
 10
78.394422
 20
63.358610
 30
0.0
 10
78.394422
 20
77.092670
 30
0.0
  0
LWPOLYLINE
  5
115
100
AcDbEntity
  8
0
 62
5
100
AcDbPolyline
 90
4
 70
1
 10
97.140416
 20
93.802460
 30
0.0
 10
97.140416
 20
80.068400
 30
0.0
 10
78.394422
 20
80.068400
 30
0.0
 10
78.394422
 20
93.802460
 30
0.0
  0
LWPOLYLINE
  5
116
100
AcDbEntity
  8
0
 62
5
100
AcDbPolyline
 90
4
 70
1
 10
97.140416
 20
110.512240
 30
0.0
 10
97.140416
 20
96.778180
 30
0.0
 10
78.394422
 20
96.778180
 30
0.0
 10
78.394422
 20
110.512240
 30
0.0
  0
LWPOLYLINE
  5
117
100
AcDbEntity
  8
0
 62
5
100
AcDbPolyline
 90
4
 70
1
 10
97.140416
 20
143.931817
 30
0.0
 10
97.140416
 20
130.197760
 30
0.0
 10
78.394422
 20
130.197760
 30
0.0
 10
78.394422
 20
143.931817
 30
0.0
  0
LWPOLYLINE
  5
118
100
AcDbEntity
  8
0
 62
5
100
AcDbPolyline
 90
4
 70
1
 10
97.140416
 20
160.641604
 30
0.0
 10
97.140416
 20
146.907544
 30
0.0
 10
78.394422
 20
146.907544
 30
0.0
 10
78.394422
 20
160.641604
 30
0.0
  0
LWPOLYLINE
  5
119
100
AcDbEntity
  8
0
 62
5
100
AcDbPolyline
 90
4
 70
1
 10
97.140416
 20
177.351391
 30
0.0
 10
97.140416
 20
163.617331
 30
0.0
 10
78.394422
 20
163.617331
 30
0.0
 10
78.394422
 20
177.351391
 30
0.0
  0
LWPOLYLINE
  5
11a
100
AcDbEntity
  8
0
 62
5
100
AcDbPolyline
 90
4
 70
1
 10
97.140416
 20
210.770966
 30
0.0
 10
97.140416
 20
197.036906
 30
0.0
 10
78.394422
 20
197.036906
 30
0.0
 10
78.394422
 20
210.770966
 30
0.0
  0
LWPOLYLINE
  5
11b
100
AcDbEntity
  8
0
 62
5
100
AcDbPolyline
 90
4
 70
1
 10
31.975253
 20
227.480753
 30
0.0
 10
31.975253
 20
213.746693
 30
0.0
 10
13.229259
 20
213.746693
 30
0.0
 10
13.229259
 20
227.480753
 30
0.0
  0
LWPOLYLINE
  5
11c
100
AcDbEntity
  8
0
 62
5
100
AcDbPolyline
 90
4
 70
1
 10
31.975253
 20
194.061179
 30
0.0
 10
31.975253
 20
180.327118
 30
0.0
 10
13.229259
 20
180.327118
 30
0.0
 10
13.229259
 20
194.061179
 30
0.0
  0
LWPOLYLINE
  5
11d
100
AcDbEntity
  8
0
 62
5
100
AcDbPolyline
 90
4
 70
1
 10
31.975253
 20
127.222030
 30
0.0
 10
31.975253
 20
113.487970
 30
0.0
 10
13.229259
 20
113.487970
 30
0.0
 10
13.229259
 20
127.222030
 30
0.0
  0
LWPOLYLINE
  5
11e
100
AcDbEntity
  8
0
 62
5
100
AcDbPolyline
 90
4
 70
1
 10
31.975253
 20
60.382880
 30
0.0
 10
31.975253
 20
46.648820
 30
0.0
 10
13.229259
 20
46.648820
 30
0.0
 10
13.229259
 20
60.382880
 30
0.0
  0
LWPOLYLINE
  5
11f
100
AcDbEntity
  8
0
 62
5
100
AcDbPolyline
 90
4
 70
1
 10
31.975253
 20
26.963310
 30
0.0
 10
31.975253
 20
13.229250
 30
0.0
 10
13.229259
 20
13.229250
 30
0.0
 10
13.229259
 20
26.963310
 30
0.0
  0
LWPOLYLINE
  5
120
100
AcDbEntity
  8
0
 62
5
100
AcDbPolyline
 90
4
 70
1
 10
31.975253
 20
43.673090
 30
0.0
 10
31.975253
 20
29.939030
 30
0.0
 10
13.229259
 20
29.939030
 30
0.0
 10
13.229259
 20
43.673090
 30
0.0
  0
LWPOLYLINE
  5
121
100
AcDbEntity
  8
0
 62
5
100
AcDbPolyline
 90
4
 70
1
 10
31.975253
 20
77.092670
 30
0.0
 10
31.975253
 20
63.358610
 30
0.0
 10
13.229259
 20
63.358610
 30
0.0
 10
13.229259
 20
77.092670
 30
0.0
  0
LWPOLYLINE
  5
122
100
AcDbEntity
  8
0
 62
5
100
AcDbPolyline
 90
4
 70
1
 10
31.975253
 20
93.802460
 30
0.0
 10
31.975253
 20
80.068400
 30
0.0
 10
13.229259
 20
80.068400
 30
0.0
 10
13.229259
 20
93.802460
 30
0.0
  0
LWPOLYLINE
  5
123
100
AcDbEntity
  8
0
 62
5
100
AcDbPolyline
 90
4
 70
1
 10
31.975253
 20
110.512240
 30
0.0
 10
31.975253
 20
96.778180
 30
0.0
 10
13.229259
 20
96.778180
 30
0.0
 10
13.229259
 20
110.512240
 30
0.0
  0
LWPOLYLINE
  5
124
100
AcDbEntity
  8
0
 62
5
100
AcDbPolyline
 90
4
 70
1
 10
31.975253
 20
143.931817
 30
0.0
 10
31.975253
 20
130.197760
 30
0.0
 10
13.229259
 20
130.197760
 30
0.0
 10
13.229259
 20
143.931817
 30
0.0
  0
LWPOLYLINE
  5
125
100
AcDbEntity
  8
0
 62
5
100
AcDbPolyline
 90
4
 70
1
 10
31.975253
 20
160.641604
 30
0.0
 10
31.975253
 20
146.907544
 30
0.0
 10
13.229259
 20
146.907544
 30
0.0
 10
13.229259
 20
160.641604
 30
0.0
  0
LWPOLYLINE
  5
126
100
AcDbEntity
  8
0
 62
5
100
AcDbPolyline
 90
4
 70
1
 10
31.975253
 20
177.351391
 30
0.0
 10
31.975253
 20
163.617331
 30
0.0
 10
13.229259
 20
163.617331
 30
0.0
 10
13.229259
 20
177.351391
 30
0.0
  0
LWPOLYLINE
  5
127
100
AcDbEntity
  8
0
 62
5
100
AcDbPolyline
 90
4
 70
1
 10
31.975253
 20
210.770966
 30
0.0
 10
31.975253
 20
197.036906
 30
0.0
 10
13.229259
 20
197.036906
 30
0.0
 10
13.229259
 20
210.770966
 30
0.0
  0
LWPOLYLINE
  5
128
100
AcDbEntity
  8
0
 62
5
100
AcDbPolyline
 90
4
 70
1
 10
53.696974
 20
210.770966
 30
0.0
 10
53.696974
 20
197.036906
 30
0.0
 10
34.950980
 20
197.036906
 30
0.0
 10
34.950980
 20
210.770966
 30
0.0
  0
LWPOLYLINE
  5
129
100
AcDbEntity
  8
0
 62
5
100
AcDbPolyline
 90
4
 70
1
 10
53.696974
 20
177.351391
 30
0.0
 10
53.696974
 20
163.617331
 30
0.0
 10
34.950980
 20
163.617331
 30
0.0
 10
34.950980
 20
177.351391
 30
0.0
  0
LWPOLYLINE
  5
12a
100
AcDbEntity
  8
0
 62
5
100
AcDbPolyline
 90
4
 70
1
 10
53.696974
 20
160.641604
 30
0.0
 10
53.696974
 20
146.907544
 30
0.0
 10
34.950980
 20
146.907544
 30
0.0
 10
34.950980
 20
160.641604
 30
0.0
  0
LWPOLYLINE
  5
12b
100
AcDbEntity
  8
0
 62
5
100
AcDbPolyline
 90
4
 70
1
 10
53.696974
 20
143.931817
 30
0.0
 10
53.696974
 20
130.197760
 30
0.0
 10
34.950980
 20
130.197760
 30
0.0
 10
34.950980
 20
143.931817
 30
0.0
  0
LWPOLYLINE
  5
12c
100
AcDbEntity
  8
0
 62
5
100
AcDbPolyline
 90
4
 70
1
 10
53.696974
 20
110.512240
 30
0.0
 10
53.696974
 20
96.778180
 30
0.0
 10
34.950980
 20
96.778180
 30
0.0
 10
34.950980
 20
110.512240
 30
0.0
  0
LWPOLYLINE
  5
12d
100
AcDbEntity
  8
0
 62
5
100
AcDbPolyline
 90
4
 70
1
 10
53.696974
 20
93.802460
 30
0.0
 10
53.696974
 20
80.068400
 30
0.0
 10
34.950980
 20
80.068400
 30
0.0
 10
34.950980
 20
93.802460
 30
0.0
  0
LWPOLYLINE
  5
12e
100
AcDbEntity
  8
0
 62
5
100
AcDbPolyline
 90
4
 70
1
 10
53.696974
 20
77.092670
 30
0.0
 10
53.696974
 20
63.358610
 30
0.0
 10
34.950980
 20
63.358610
 30
0.0
 10
34.950980
 20
77.092670
 30
0.0
  0
LWPOLYLINE
  5
12f
100
AcDbEntity
  8
0
 62
5
100
AcDbPolyline
 90
4
 70
1
 10
53.696974
 20
43.673090
 30
0.0
 10
53.696974
 20
29.939030
 30
0.0
 10
34.950980
 20
29.939030
 30
0.0
 10
34.950980
 20
43.673090
 30
0.0
  0
LWPOLYLINE
  5
130
100
AcDbEntity
  8
0
 62
5
100
AcDbPolyline
 90
4
 70
1
 10
53.696974
 20
26.963310
 30
0.0
 10
53.696974
 20
13.229250
 30
0.0
 10
34.950980
 20
13.229250
 30
0.0
 10
34.950980
 20
26.963310
 30
0.0
  0
LWPOLYLINE
  5
131
100
AcDbEntity
  8
0
 62
5
100
AcDbPolyline
 90
4
 70
1
 10
53.696974
 20
60.382880
 30
0.0
 10
53.696974
 20
46.648820
 30
0.0
 10
34.950980
 20
46.648820
 30
0.0
 10
34.950980
 20
60.382880
 30
0.0
  0
LWPOLYLINE
  5
132
100
AcDbEntity
  8
0
 62
5
100
AcDbPolyline
 90
4
 70
1
 10
53.696974
 20
127.222030
 30
0.0
 10
53.696974
 20
113.487970
 30
0.0
 10
34.950980
 20
113.487970
 30
0.0
 10
34.950980
 20
127.222030
 30
0.0
  0
LWPOLYLINE
  5
133
100
AcDbEntity
  8
0
 62
5
100
AcDbPolyline
 90
4
 70
1
 10
53.696974
 20
194.061179
 30
0.0
 10
53.696974
 20
180.327118
 30
0.0
 10
34.950980
 20
180.327118
 30
0.0
 10
34.950980
 20
194.061179
 30
0.0
  0
LWPOLYLINE
  5
134
100
AcDbEntity
  8
0
 62
5
100
AcDbPolyline
 90
4
 70
1
 10
53.696974
 20
227.480753
 30
0.0
 10
53.696974
 20
213.746693
 30
0.0
 10
34.950980
 20
213.746693
 30
0.0
 10
34.950980
 20
227.480753
 30
0.0
  0
LWPOLYLINE
  5
135
100
AcDbEntity
  8
0
 62
5
100
AcDbPolyline
 90
4
 70
1
 10
75.418695
 20
210.770966
 30
0.0
 10
75.418695
 20
197.036906
 30
0.0
 10
56.672701
 20
197.036906
 30
0.0
 10
56.672701
 20
210.770966
 30
0.0
  0
LWPOLYLINE
  5
136
100
AcDbEntity
  8
0
 62
5
100
AcDbPolyline
 90
4
 70
1
 10
75.418695
 20
177.351391
 30
0.0
 10
75.418695
 20
163.617331
 30
0.0
 10
56.672701
 20
163.617331
 30
0.0
 10
56.672701
 20
177.351391
 30
0.0
  0
LWPOLYLINE
  5
137
100
AcDbEntity
  8
0
 62
5
100
AcDbPolyline
 90
4
 70
1
 10
75.418695
 20
160.641604
 30
0.0
 10
75.418695
 20
146.907544
 30
0.0
 10
56.672701
 20
146.907544
 30
0.0
 10
56.672701
 20
160.641604
 30
0.0
  0
LWPOLYLINE
  5
138
100
AcDbEntity
  8
0
 62
5
100
AcDbPolyline
 90
4
 70
1
 10
75.418695
 20
143.931817
 30
0.0
 10
75.418695
 20
130.197760
 30
0.0
 10
56.672701
 20
130.197760
 30
0.0
 10
56.672701
 20
143.931817
 30
0.0
  0
LWPOLYLINE
  5
139
100
AcDbEntity
  8
0
 62
5
100
AcDbPolyline
 90
4
 70
1
 10
75.418695
 20
110.512240
 30
0.0
 10
75.418695
 20
96.778180
 30
0.0
 10
56.672701
 20
96.778180
 30
0.0
 10
56.672701
 20
110.512240
 30
0.0
  0
LWPOLYLINE
  5
13a
100
AcDbEntity
  8
0
 62
5
100
AcDbPolyline
 90
4
 70
1
 10
75.418695
 20
93.802460
 30
0.0
 10
75.418695
 20
80.068400
 30
0.0
 10
56.672701
 20
80.068400
 30
0.0
 10
56.672701
 20
93.802460
 30
0.0
  0
LWPOLYLINE
  5
13b
100
AcDbEntity
  8
0
 62
5
100
AcDbPolyline
 90
4
 70
1
 10
75.418695
 20
77.092670
 30
0.0
 10
75.418695
 20
63.358610
 30
0.0
 10
56.672701
 20
63.358610
 30
0.0
 10
56.672701
 20
77.092670
 30
0.0
  0
LWPOLYLINE
  5
13c
100
AcDbEntity
  8
0
 62
5
100
AcDbPolyline
 90
4
 70
1
 10
75.418695
 20
43.673090
 30
0.0
 10
75.418695
 20
29.939030
 30
0.0
 10
56.672701
 20
29.939030
 30
0.0
 10
56.672701
 20
43.673090
 30
0.0
  0
LWPOLYLINE
  5
13d
100
AcDbEntity
  8
0
 62
5
100
AcDbPolyline
 90
4
 70
1
 10
75.418695
 20
26.963310
 30
0.0
 10
75.418695
 20
13.229250
 30
0.0
 10
56.672701
 20
13.229250
 30
0.0
 10
56.672701
 20
26.963310
 30
0.0
  0
LWPOLYLINE
  5
13e
100
AcDbEntity
  8
0
 62
5
100
AcDbPolyline
 90
4
 70
1
 10
75.418695
 20
60.382880
 30
0.0
 10
75.418695
 20
46.648820
 30
0.0
 10
56.672701
 20
46.648820
 30
0.0
 10
56.672701
 20
60.382880
 30
0.0
  0
LWPOLYLINE
  5
13f
100
AcDbEntity
  8
0
 62
5
100
AcDbPolyline
 90
4
 70
1
 10
75.418695
 20
127.222030
 30
0.0
 10
75.418695
 20
113.487970
 30
0.0
 10
56.672701
 20
113.487970
 30
0.0
 10
56.672701
 20
127.222030
 30
0.0
  0
LWPOLYLINE
  5
140
100
AcDbEntity
  8
0
 62
5
100
AcDbPolyline
 90
4
 70
1
 10
75.418695
 20
194.061179
 30
0.0
 10
75.418695
 20
180.327118
 30
0.0
 10
56.672701
 20
180.327118
 30
0.0
 10
56.672701
 20
194.061179
 30
0.0
  0
LWPOLYLINE
  5
141
100
AcDbEntity
  8
0
 62
5
100
AcDbPolyline
 90
4
 70
1
 10
75.418695
 20
227.480753
 30
0.0
 10
75.418695
 20
213.746693
 30
0.0
 10
56.672701
 20
213.746693
 30
0.0
 10
56.672701
 20
227.480753
 30
0.0
  0
LWPOLYLINE
  5
142
100
AcDbEntity
  8
0
 62
5
100
AcDbPolyline
 90
4
 70
1
 10
184.027300
 20
227.480753
 30
0.0
 10
184.027300
 20
213.746693
 30
0.0
 10
165.281310
 20
213.746693
 30
0.0
 10
165.281310
 20
227.480753
 30
0.0
  0
LWPOLYLINE
  5
143
100
AcDbEntity
  8
0
 62
5
100
AcDbPolyline
 90
4
 70
1
 10
184.027300
 20
194.061179
 30
0.0
 10
184.027300
 20
180.327118
 30
0.0
 10
165.281310
 20
180.327118
 30
0.0
 10
165.281310
 20
194.061179
 30
0.0
  0
LWPOLYLINE
  5
144
100
AcDbEntity
  8
0
 62
5
100
AcDbPolyline
 90
4
 70
1
 10
184.027300
 20
127.222030
 30
0.0
 10
184.027300
 20
113.487970
 30
0.0
 10
165.281310
 20
113.487970
 30
0.0
 10
165.281310
 20
127.222030
 30
0.0
  0
LWPOLYLINE
  5
145
100
AcDbEntity
  8
0
 62
5
100
AcDbPolyline
 90
4
 70
1
 10
184.027300
 20
60.382880
 30
0.0
 10
184.027300
 20
46.648820
 30
0.0
 10
165.281310
 20
46.648820
 30
0.0
 10
165.281310
 20
60.382880
 30
0.0
  0
LWPOLYLINE
  5
146
100
AcDbEntity
  8
0
 62
5
100
AcDbPolyline
 90
4
 70
1
 10
184.027300
 20
26.963310
 30
0.0
 10
184.027300
 20
13.229250
 30
0.0
 10
165.281310
 20
13.229250
 30
0.0
 10
165.281310
 20
26.963310
 30
0.0
  0
LWPOLYLINE
  5
147
100
AcDbEntity
  8
0
 62
5
100
AcDbPolyline
 90
4
 70
1
 10
184.027300
 20
43.673090
 30
0.0
 10
184.027300
 20
29.939030
 30
0.0
 10
165.281310
 20
29.939030
 30
0.0
 10
165.281310
 20
43.673090
 30
0.0
  0
LWPOLYLINE
  5
148
100
AcDbEntity
  8
0
 62
5
100
AcDbPolyline
 90
4
 70
1
 10
184.027300
 20
77.092670
 30
0.0
 10
184.027300
 20
63.358610
 30
0.0
 10
165.281310
 20
63.358610
 30
0.0
 10
165.281310
 20
77.092670
 30
0.0
  0
LWPOLYLINE
  5
149
100
AcDbEntity
  8
0
 62
5
100
AcDbPolyline
 90
4
 70
1
 10
184.027300
 20
93.802460
 30
0.0
 10
184.027300
 20
80.068400
 30
0.0
 10
165.281310
 20
80.068400
 30
0.0
 10
165.281310
 20
93.802460
 30
0.0
  0
LWPOLYLINE
  5
14a
100
AcDbEntity
  8
0
 62
5
100
AcDbPolyline
 90
4
 70
1
 10
184.027300
 20
110.512240
 30
0.0
 10
184.027300
 20
96.778180
 30
0.0
 10
165.281310
 20
96.778180
 30
0.0
 10
165.281310
 20
110.512240
 30
0.0
  0
LWPOLYLINE
  5
14b
100
AcDbEntity
  8
0
 62
5
100
AcDbPolyline
 90
4
 70
1
 10
184.027300
 20
143.931817
 30
0.0
 10
184.027300
 20
130.197760
 30
0.0
 10
165.281310
 20
130.197760
 30
0.0
 10
165.281310
 20
143.931817
 30
0.0
  0
LWPOLYLINE
  5
14c
100
AcDbEntity
  8
0
 62
5
100
AcDbPolyline
 90
4
 70
1
 10
184.027300
 20
160.641604
 30
0.0
 10
184.027300
 20
146.907544
 30
0.0
 10
165.281310
 20
146.907544
 30
0.0
 10
165.281310
 20
160.641604
 30
0.0
  0
LWPOLYLINE
  5
14d
100
AcDbEntity
  8
0
 62
5
100
AcDbPolyline
 90
4
 70
1
 10
184.027300
 20
177.351391
 30
0.0
 10
184.027300
 20
163.617331
 30
0.0
 10
165.281310
 20
163.617331
 30
0.0
 10
165.281310
 20
177.351391
 30
0.0
  0
LWPOLYLINE
  5
14e
100
AcDbEntity
  8
0
 62
5
100
AcDbPolyline
 90
4
 70
1
 10
184.027300
 20
210.770966
 30
0.0
 10
184.027300
 20
197.036906
 30
0.0
 10
165.281310
 20
197.036906
 30
0.0
 10
165.281310
 20
210.770966
 30
0.0
  0
LWPOLYLINE
  5
14f
100
AcDbEntity
  8
0
 62
5
100
AcDbPolyline
 90
4
 70
1
 10
162.305580
 20
227.480753
 30
0.0
 10
162.305580
 20
213.746693
 30
0.0
 10
143.559580
 20
213.746693
 30
0.0
 10
143.559580
 20
227.480753
 30
0.0
  0
LWPOLYLINE
  5
150
100
AcDbEntity
  8
0
 62
5
100
AcDbPolyline
 90
4
 70
1
 10
162.305580
 20
194.061179
 30
0.0
 10
162.305580
 20
180.327118
 30
0.0
 10
143.559580
 20
180.327118
 30
0.0
 10
143.559580
 20
194.061179
 30
0.0
  0
LWPOLYLINE
  5
151
100
AcDbEntity
  8
0
 62
5
100
AcDbPolyline
 90
4
 70
1
 10
162.305580
 20
127.222030
 30
0.0
 10
162.305580
 20
113.487970
 30
0.0
 10
143.559580
 20
113.487970
 30
0.0
 10
143.559580
 20
127.222030
 30
0.0
  0
LWPOLYLINE
  5
152
100
AcDbEntity
  8
0
 62
5
100
AcDbPolyline
 90
4
 70
1
 10
162.305580
 20
60.382880
 30
0.0
 10
162.305580
 20
46.648820
 30
0.0
 10
143.559580
 20
46.648820
 30
0.0
 10
143.559580
 20
60.382880
 30
0.0
  0
LWPOLYLINE
  5
153
100
AcDbEntity
  8
0
 62
5
100
AcDbPolyline
 90
4
 70
1
 10
162.305580
 20
26.963310
 30
0.0
 10
162.305580
 20
13.229250
 30
0.0
 10
143.559580
 20
13.229250
 30
0.0
 10
143.559580
 20
26.963310
 30
0.0
  0
LWPOLYLINE
  5
154
100
AcDbEntity
  8
0
 62
5
100
AcDbPolyline
 90
4
 70
1
 10
162.305580
 20
43.673090
 30
0.0
 10
162.305580
 20
29.939030
 30
0.0
 10
143.559580
 20
29.939030
 30
0.0
 10
143.559580
 20
43.673090
 30
0.0
  0
LWPOLYLINE
  5
155
100
AcDbEntity
  8
0
 62
5
100
AcDbPolyline
 90
4
 70
1
 10
162.305580
 20
77.092670
 30
0.0
 10
162.305580
 20
63.358610
 30
0.0
 10
143.559580
 20
63.358610
 30
0.0
 10
143.559580
 20
77.092670
 30
0.0
  0
LWPOLYLINE
  5
156
100
AcDbEntity
  8
0
 62
5
100
AcDbPolyline
 90
4
 70
1
 10
162.305580
 20
93.802460
 30
0.0
 10
162.305580
 20
80.068400
 30
0.0
 10
143.559580
 20
80.068400
 30
0.0
 10
143.559580
 20
93.802460
 30
0.0
  0
LWPOLYLINE
  5
157
100
AcDbEntity
  8
0
 62
5
100
AcDbPolyline
 90
4
 70
1
 10
162.305580
 20
110.512240
 30
0.0
 10
162.305580
 20
96.778180
 30
0.0
 10
143.559580
 20
96.778180
 30
0.0
 10
143.559580
 20
110.512240
 30
0.0
  0
LWPOLYLINE
  5
158
100
AcDbEntity
  8
0
 62
5
100
AcDbPolyline
 90
4
 70
1
 10
162.305580
 20
143.931817
 30
0.0
 10
162.305580
 20
130.197760
 30
0.0
 10
143.559580
 20
130.197760
 30
0.0
 10
143.559580
 20
143.931817
 30
0.0
  0
LWPOLYLINE
  5
159
100
AcDbEntity
  8
0
 62
5
100
AcDbPolyline
 90
4
 70
1
 10
162.305580
 20
160.641604
 30
0.0
 10
162.305580
 20
146.907544
 30
0.0
 10
143.559580
 20
146.907544
 30
0.0
 10
143.559580
 20
160.641604
 30
0.0
  0
LWPOLYLINE
  5
15a
100
AcDbEntity
  8
0
 62
5
100
AcDbPolyline
 90
4
 70
1
 10
162.305580
 20
177.351391
 30
0.0
 10
162.305580
 20
163.617331
 30
0.0
 10
143.559580
 20
163.617331
 30
0.0
 10
143.559580
 20
177.351391
 30
0.0
  0
LWPOLYLINE
  5
15b
100
AcDbEntity
  8
0
 62
5
100
AcDbPolyline
 90
4
 70
1
 10
162.305580
 20
210.770966
 30
0.0
 10
162.305580
 20
197.036906
 30
0.0
 10
143.559580
 20
197.036906
 30
0.0
 10
143.559580
 20
210.770966
 30
0.0
  0
LWPOLYLINE
  5
15c
100
AcDbEntity
  8
0
 62
5
100
AcDbPolyline
 90
4
 70
1
 10
140.583860
 20
210.770966
 30
0.0
 10
140.583860
 20
197.036906
 30
0.0
 10
121.837860
 20
197.036906
 30
0.0
 10
121.837860
 20
210.770966
 30
0.0
  0
LWPOLYLINE
  5
15d
100
AcDbEntity
  8
0
 62
5
100
AcDbPolyline
 90
4
 70
1
 10
140.583860
 20
177.351391
 30
0.0
 10
140.583860
 20
163.617331
 30
0.0
 10
121.837860
 20
163.617331
 30
0.0
 10
121.837860
 20
177.351391
 30
0.0
  0
LWPOLYLINE
  5
15e
100
AcDbEntity
  8
0
 62
5
100
AcDbPolyline
 90
4
 70
1
 10
140.583860
 20
160.641604
 30
0.0
 10
140.583860
 20
146.907544
 30
0.0
 10
121.837860
 20
146.907544
 30
0.0
 10
121.837860
 20
160.641604
 30
0.0
  0
LWPOLYLINE
  5
15f
100
AcDbEntity
  8
0
 62
5
100
AcDbPolyline
 90
4
 70
1
 10
140.583860
 20
143.931817
 30
0.0
 10
140.583860
 20
130.197760
 30
0.0
 10
121.837860
 20
130.197760
 30
0.0
 10
121.837860
 20
143.931817
 30
0.0
  0
LWPOLYLINE
  5
160
100
AcDbEntity
  8
0
 62
5
100
AcDbPolyline
 90
4
 70
1
 10
140.583860
 20
110.512240
 30
0.0
 10
140.583860
 20
96.778180
 30
0.0
 10
121.837860
 20
96.778180
 30
0.0
 10
121.837860
 20
110.512240
 30
0.0
  0
LWPOLYLINE
  5
161
100
AcDbEntity
  8
0
 62
5
100
AcDbPolyline
 90
4
 70
1
 10
140.583860
 20
93.802460
 30
0.0
 10
140.583860
 20
80.068400
 30
0.0
 10
121.837860
 20
80.068400
 30
0.0
 10
121.837860
 20
93.802460
 30
0.0
  0
LWPOLYLINE
  5
162
100
AcDbEntity
  8
0
 62
5
100
AcDbPolyline
 90
4
 70
1
 10
140.583860
 20
77.092670
 30
0.0
 10
140.583860
 20
63.358610
 30
0.0
 10
121.837860
 20
63.358610
 30
0.0
 10
121.837860
 20
77.092670
 30
0.0
  0
LWPOLYLINE
  5
163
100
AcDbEntity
  8
0
 62
5
100
AcDbPolyline
 90
4
 70
1
 10
140.583860
 20
43.673090
 30
0.0
 10
140.583860
 20
29.939030
 30
0.0
 10
121.837860
 20
29.939030
 30
0.0
 10
121.837860
 20
43.673090
 30
0.0
  0
LWPOLYLINE
  5
164
100
AcDbEntity
  8
0
 62
5
100
AcDbPolyline
 90
4
 70
1
 10
140.583860
 20
26.963310
 30
0.0
 10
140.583860
 20
13.229250
 30
0.0
 10
121.837860
 20
13.229250
 30
0.0
 10
121.837860
 20
26.963310
 30
0.0
  0
LWPOLYLINE
  5
165
100
AcDbEntity
  8
0
 62
5
100
AcDbPolyline
 90
4
 70
1
 10
140.583860
 20
60.382880
 30
0.0
 10
140.583860
 20
46.648820
 30
0.0
 10
121.837860
 20
46.648820
 30
0.0
 10
121.837860
 20
60.382880
 30
0.0
  0
LWPOLYLINE
  5
166
100
AcDbEntity
  8
0
 62
5
100
AcDbPolyline
 90
4
 70
1
 10
140.583860
 20
127.222030
 30
0.0
 10
140.583860
 20
113.487970
 30
0.0
 10
121.837860
 20
113.487970
 30
0.0
 10
121.837860
 20
127.222030
 30
0.0
  0
LWPOLYLINE
  5
167
100
AcDbEntity
  8
0
 62
5
100
AcDbPolyline
 90
4
 70
1
 10
140.583860
 20
194.061179
 30
0.0
 10
140.583860
 20
180.327118
 30
0.0
 10
121.837860
 20
180.327118
 30
0.0
 10
121.837860
 20
194.061179
 30
0.0
  0
LWPOLYLINE
  5
168
100
AcDbEntity
  8
0
 62
5
100
AcDbPolyline
 90
4
 70
1
 10
140.583860
 20
227.480753
 30
0.0
 10
140.583860
 20
213.746693
 30
0.0
 10
121.837860
 20
213.746693
 30
0.0
 10
121.837860
 20
227.480753
 30
0.0
  0
LWPOLYLINE
  5
169
100
AcDbEntity
  8
0
 62
5
100
AcDbPolyline
 90
4
 70
1
 10
205.749020
 20
210.770966
 30
0.0
 10
205.749020
 20
197.036906
 30
0.0
 10
187.003030
 20
197.036906
 30
0.0
 10
187.003030
 20
210.770966
 30
0.0
  0
LWPOLYLINE
  5
16a
100
AcDbEntity
  8
0
 62
5
100
AcDbPolyline
 90
4
 70
1
 10
205.749020
 20
177.351391
 30
0.0
 10
205.749020
 20
163.617331
 30
0.0
 10
187.003030
 20
163.617331
 30
0.0
 10
187.003030
 20
177.351391
 30
0.0
  0
LWPOLYLINE
  5
16b
100
AcDbEntity
  8
0
 62
5
100
AcDbPolyline
 90
4
 70
1
 10
205.749020
 20
160.641604
 30
0.0
 10
205.749020
 20
146.907544
 30
0.0
 10
187.003030
 20
146.907544
 30
0.0
 10
187.003030
 20
160.641604
 30
0.0
  0
LWPOLYLINE
  5
16c
100
AcDbEntity
  8
0
 62
5
100
AcDbPolyline
 90
4
 70
1
 10
205.749020
 20
143.931817
 30
0.0
 10
205.749020
 20
130.197760
 30
0.0
 10
187.003030
 20
130.197760
 30
0.0
 10
187.003030
 20
143.931817
 30
0.0
  0
LWPOLYLINE
  5
16d
100
AcDbEntity
  8
0
 62
5
100
AcDbPolyline
 90
4
 70
1
 10
205.749020
 20
110.512240
 30
0.0
 10
205.749020
 20
96.778180
 30
0.0
 10
187.003030
 20
96.778180
 30
0.0
 10
187.003030
 20
110.512240
 30
0.0
  0
LWPOLYLINE
  5
16e
100
AcDbEntity
  8
0
 62
5
100
AcDbPolyline
 90
4
 70
1
 10
205.749020
 20
93.802460
 30
0.0
 10
205.749020
 20
80.068400
 30
0.0
 10
187.003030
 20
80.068400
 30
0.0
 10
187.003030
 20
93.802460
 30
0.0
  0
LWPOLYLINE
  5
16f
100
AcDbEntity
  8
0
 62
5
100
AcDbPolyline
 90
4
 70
1
 10
205.749020
 20
77.092670
 30
0.0
 10
205.749020
 20
63.358610
 30
0.0
 10
187.003030
 20
63.358610
 30
0.0
 10
187.003030
 20
77.092670
 30
0.0
  0
LWPOLYLINE
  5
170
100
AcDbEntity
  8
0
 62
5
100
AcDbPolyline
 90
4
 70
1
 10
205.749020
 20
43.673090
 30
0.0
 10
205.749020
 20
29.939030
 30
0.0
 10
187.003030
 20
29.939030
 30
0.0
 10
187.003030
 20
43.673090
 30
0.0
  0
LWPOLYLINE
  5
171
100
AcDbEntity
  8
0
 62
5
100
AcDbPolyline
 90
4
 70
1
 10
205.749020
 20
26.963310
 30
0.0
 10
205.749020
 20
13.229250
 30
0.0
 10
187.003030
 20
13.229250
 30
0.0
 10
187.003030
 20
26.963310
 30
0.0
  0
LWPOLYLINE
  5
172
100
AcDbEntity
  8
0
 62
5
100
AcDbPolyline
 90
4
 70
1
 10
205.749020
 20
60.382880
 30
0.0
 10
205.749020
 20
46.648820
 30
0.0
 10
187.003030
 20
46.648820
 30
0.0
 10
187.003030
 20
60.382880
 30
0.0
  0
LWPOLYLINE
  5
173
100
AcDbEntity
  8
0
 62
5
100
AcDbPolyline
 90
4
 70
1
 10
205.749020
 20
127.222030
 30
0.0
 10
205.749020
 20
113.487970
 30
0.0
 10
187.003030
 20
113.487970
 30
0.0
 10
187.003030
 20
127.222030
 30
0.0
  0
LWPOLYLINE
  5
174
100
AcDbEntity
  8
0
 62
5
100
AcDbPolyline
 90
4
 70
1
 10
205.749020
 20
194.061179
 30
0.0
 10
205.749020
 20
180.327118
 30
0.0
 10
187.003030
 20
180.327118
 30
0.0
 10
187.003030
 20
194.061179
 30
0.0
  0
LWPOLYLINE
  5
175
100
AcDbEntity
  8
0
 62
5
100
AcDbPolyline
 90
4
 70
1
 10
205.749020
 20
227.480753
 30
0.0
 10
205.749020
 20
213.746693
 30
0.0
 10
187.003030
 20
213.746693
 30
0.0
 10
187.003030
 20
227.480753
 30
0.0
  0
LWPOLYLINE
  5
176
100
AcDbEntity
  8
0
 62
5
100
AcDbPolyline
 90
4
 70
1
 10
227.470740
 20
210.770966
 30
0.0
 10
227.470740
 20
197.036906
 30
0.0
 10
208.724750
 20
197.036906
 30
0.0
 10
208.724750
 20
210.770966
 30
0.0
  0
LWPOLYLINE
  5
177
100
AcDbEntity
  8
0
 62
5
100
AcDbPolyline
 90
4
 70
1
 10
227.470740
 20
177.351391
 30
0.0
 10
227.470740
 20
163.617331
 30
0.0
 10
208.724750
 20
163.617331
 30
0.0
 10
208.724750
 20
177.351391
 30
0.0
  0
LWPOLYLINE
  5
178
100
AcDbEntity
  8
0
 62
5
100
AcDbPolyline
 90
4
 70
1
 10
227.470740
 20
160.641604
 30
0.0
 10
227.470740
 20
146.907544
 30
0.0
 10
208.724750
 20
146.907544
 30
0.0
 10
208.724750
 20
160.641604
 30
0.0
  0
LWPOLYLINE
  5
179
100
AcDbEntity
  8
0
 62
5
100
AcDbPolyline
 90
4
 70
1
 10
227.470740
 20
143.931817
 30
0.0
 10
227.470740
 20
130.197760
 30
0.0
 10
208.724750
 20
130.197760
 30
0.0
 10
208.724750
 20
143.931817
 30
0.0
  0
LWPOLYLINE
  5
17a
100
AcDbEntity
  8
0
 62
5
100
AcDbPolyline
 90
4
 70
1
 10
227.470740
 20
110.512240
 30
0.0
 10
227.470740
 20
96.778180
 30
0.0
 10
208.724750
 20
96.778180
 30
0.0
 10
208.724750
 20
110.512240
 30
0.0
  0
LWPOLYLINE
  5
17b
100
AcDbEntity
  8
0
 62
5
100
AcDbPolyline
 90
4
 70
1
 10
227.470740
 20
93.802460
 30
0.0
 10
227.470740
 20
80.068400
 30
0.0
 10
208.724750
 20
80.068400
 30
0.0
 10
208.724750
 20
93.802460
 30
0.0
  0
LWPOLYLINE
  5
17c
100
AcDbEntity
  8
0
 62
5
100
AcDbPolyline
 90
4
 70
1
 10
227.470740
 20
77.092670
 30
0.0
 10
227.470740
 20
63.358610
 30
0.0
 10
208.724750
 20
63.358610
 30
0.0
 10
208.724750
 20
77.092670
 30
0.0
  0
LWPOLYLINE
  5
17d
100
AcDbEntity
  8
0
 62
5
100
AcDbPolyline
 90
4
 70
1
 10
227.470740
 20
43.673090
 30
0.0
 10
227.470740
 20
29.939030
 30
0.0
 10
208.724750
 20
29.939030
 30
0.0
 10
208.724750
 20
43.673090
 30
0.0
  0
LWPOLYLINE
  5
17e
100
AcDbEntity
  8
0
 62
5
100
AcDbPolyline
 90
4
 70
1
 10
227.470740
 20
26.963310
 30
0.0
 10
227.470740
 20
13.229250
 30
0.0
 10
208.724750
 20
13.229250
 30
0.0
 10
208.724750
 20
26.963310
 30
0.0
  0
LWPOLYLINE
  5
17f
100
AcDbEntity
  8
0
 62
5
100
AcDbPolyline
 90
4
 70
1
 10
227.470740
 20
60.382880
 30
0.0
 10
227.470740
 20
46.648820
 30
0.0
 10
208.724750
 20
46.648820
 30
0.0
 10
208.724750
 20
60.382880
 30
0.0
  0
LWPOLYLINE
  5
180
100
AcDbEntity
  8
0
 62
5
100
AcDbPolyline
 90
4
 70
1
 10
227.470740
 20
127.222030
 30
0.0
 10
227.470740
 20
113.487970
 30
0.0
 10
208.724750
 20
113.487970
 30
0.0
 10
208.724750
 20
127.222030
 30
0.0
  0
LWPOLYLINE
  5
181
100
AcDbEntity
  8
0
 62
5
100
AcDbPolyline
 90
4
 70
1
 10
227.470740
 20
194.061179
 30
0.0
 10
227.470740
 20
180.327118
 30
0.0
 10
208.724750
 20
180.327118
 30
0.0
 10
208.724750
 20
194.061179
 30
0.0
  0
LWPOLYLINE
  5
182
100
AcDbEntity
  8
0
 62
5
100
AcDbPolyline
 90
4
 70
1
 10
227.470740
 20
227.480753
 30
0.0
 10
227.470740
 20
213.746693
 30
0.0
 10
208.724750
 20
213.746693
 30
0.0
 10
208.724750
 20
227.480753
 30
0.0
  0
ENDSEC
  0
SECTION
  2
OBJECTS
  0
DICTIONARY
  5
C
330
0
100
AcDbDictionary
  3
ACAD_GROUP
350
D
  3
ACAD_MLINESTYLE
350
17
  0
DICTIONARY
  5
D
330
C
100
AcDbDictionary
  0
DICTIONARY
  5
1A
330
C
100
AcDbDictionary
  0
DICTIONARY
  5
17
330
C
100
AcDbDictionary
  3
STANDARD
350
18
  0
DICTIONARY
  5
19
330
C
100
AcDbDictionary
  0
ENDSEC
  0
EOF
