<?xml version="1.0" encoding="UTF-8" standalone="no"?>
<svg
   xmlns:dc="http://purl.org/dc/elements/1.1/"
   xmlns:cc="http://creativecommons.org/ns#"
   xmlns:rdf="http://www.w3.org/1999/02/22-rdf-syntax-ns#"
   xmlns:svg="http://www.w3.org/2000/svg"
   xmlns="http://www.w3.org/2000/svg"
   xmlns:sodipodi="http://sodipodi.sourceforge.net/DTD/sodipodi-0.dtd"
   xmlns:inkscape="http://www.inkscape.org/namespaces/inkscape"
   inkscape:version="1.0 (4035a4f, 2020-05-01)"
   sodipodi:docname="grid.svg"
   id="svg66"
   version="1.1"
   viewBox="0 0 240.69999999999993 240.71000000000043"
   height="240.71000000000043mm"
   width="240.69999999999993mm">
  <metadata
     id="metadata72">
    <rdf:RDF>
      <cc:Work
         rdf:about="">
        <dc:format>image/svg+xml</dc:format>
        <dc:type
           rdf:resource="http://purl.org/dc/dcmitype/StillImage" />
        <dc:title></dc:title>
      </cc:Work>
    </rdf:RDF>
  </metadata>
  <defs
     id="defs70" />
  <sodipodi:namedview
     inkscape:current-layer="svg66"
     inkscape:window-maximized="0"
     inkscape:window-y="23"
     inkscape:window-x="0"
     inkscape:cy="221.88505"
     inkscape:cx="340.24871"
     inkscape:zoom="1"
     showgrid="false"
     id="namedview68"
     inkscape:window-height="686"
     inkscape:window-width="1280"
     inkscape:pageshadow="2"
     inkscape:pageopacity="0"
     guidetolerance="10"
     gridtolerance="10"
     objecttolerance="10"
     borderopacity="1"
     bordercolor="#666666"
     pagecolor="#ffffff" />
  <desc
     id="desc60">Output from Flights of Ideas SVG Sketchup Plugin</desc>
  <path
     d="M 9.7366221,230.97339 H 230.96338 V 9.7366102 H 9.7366221 V 230.97339 M 118.86214,13.229247 v 13.73406 h -18.746 v -13.73406 h 18.746 m 0,33.419574 v 13.734061 h -18.746 V 46.648821 h 18.746 m 0,66.839149 v 13.73406 h -18.746 v -13.73406 h 18.746 m 0,66.83915 v 13.73406 h -18.746 v -13.73406 h 18.746 m 0,33.41957 v 13.73406 h -18.746 v -13.73406 h 18.746 m 0,-16.70978 v 13.73406 h -18.746 v -13.73406 h 18.746 m 0,-33.41958 v 13.73406 h -18.746 v -13.73406 h 18.746 m 0,-16.70979 v 13.73406 h -18.746 v -13.73406 h 18.746 m 0,-16.70978 v 13.73406 h -18.746 v -13.73406 h 18.746 m 0,-33.419577 v 13.734057 h -18.746 V 96.778183 h 18.746 m 0,-16.709787 v 13.73406 h -18.746 v -13.73406 h 18.746 m 0,-16.709787 v 13.73406 h -18.746 v -13.73406 h 18.746 m 0,-33.419575 v 13.73406 h -18.746 v -13.73406 h 18.746 M 97.140416,13.229247 v 13.73406 H 78.394422 v -13.73406 h 18.745994 m 0,33.419574 V 60.382882 H 78.394422 V 46.648821 h 18.745994 m 0,66.839149 v 13.73406 H 78.394422 v -13.73406 h 18.745994 m 0,66.83915 v 13.73406 H 78.394422 v -13.73406 h 18.745994 m 0,33.41957 v 13.73406 H 78.394422 v -13.73406 h 18.745994 m 0,-16.70978 v 13.73406 H 78.394422 v -13.73406 h 18.745994 m 0,-33.41958 v 13.73406 H 78.394422 v -13.73406 h 18.745994 m 0,-16.70979 V 160.6416 H 78.394422 v -13.73406 h 18.745994 m 0,-16.70978 v 13.73406 H 78.394422 v -13.73406 h 18.745994 m 0,-33.419577 V 110.51224 H 78.394422 V 96.778183 h 18.745994 m 0,-16.709787 v 13.73406 H 78.394422 v -13.73406 h 18.745994 m 0,-16.709787 v 13.73406 H 78.394422 v -13.73406 h 18.745994 m 0,-33.419575 v 13.73406 H 78.394422 V 29.939034 H 97.140416 M 31.975253,13.229247 v 13.73406 H 13.229259 v -13.73406 h 18.745994 m 0,33.419574 V 60.382882 H 13.229259 V 46.648821 h 18.745994 m 0,66.839149 v 13.73406 H 13.229259 v -13.73406 h 18.745994 m 0,66.83915 v 13.73406 H 13.229259 v -13.73406 h 18.745994 m 0,33.41957 v 13.73406 H 13.229259 v -13.73406 h 18.745994 m 0,-16.70978 v 13.73406 H 13.229259 v -13.73406 h 18.745994 m 0,-33.41958 v 13.73406 H 13.229259 v -13.73406 h 18.745994 m 0,-16.70979 V 160.6416 H 13.229259 v -13.73406 h 18.745994 m 0,-16.70978 v 13.73406 H 13.229259 v -13.73406 h 18.745994 m 0,-33.419577 V 110.51224 H 13.229259 V 96.778183 h 18.745994 m 0,-16.709787 v 13.73406 H 13.229259 v -13.73406 h 18.745994 m 0,-16.709787 v 13.73406 H 13.229259 v -13.73406 h 18.745994 m 0,-33.419575 v 13.73406 H 13.229259 v -13.73406 h 18.745994 m 21.721721,0 v 13.73406 H 34.95098 v -13.73406 h 18.745994 m 0,33.419575 v 13.73406 H 34.95098 v -13.73406 h 18.745994 m 0,16.709787 v 13.73406 H 34.95098 v -13.73406 h 18.745994 m 0,16.709787 V 110.51224 H 34.95098 V 96.778183 h 18.745994 m 0,33.419577 v 13.73406 H 34.95098 v -13.73406 h 18.745994 m 0,16.70978 V 160.6416 H 34.95098 v -13.73406 h 18.745994 m 0,16.70979 v 13.73406 H 34.95098 v -13.73406 h 18.745994 m 0,33.41958 v 13.73406 H 34.95098 v -13.73406 h 18.745994 m 0,16.70978 v 13.73406 H 34.95098 v -13.73406 h 18.745994 m 0,-33.41957 v 13.73406 H 34.95098 v -13.73406 h 18.745994 m 0,-66.83915 v 13.73406 H 34.95098 v -13.73406 h 18.745994 m 0,-66.839149 V 60.382882 H 34.95098 V 46.648821 h 18.745994 m 0,-33.419574 v 13.73406 H 34.95098 v -13.73406 h 18.745994 m 21.721721,16.709787 v 13.73406 H 56.672701 v -13.73406 h 18.745994 m 0,33.419575 v 13.73406 H 56.672701 v -13.73406 h 18.745994 m 0,16.709787 v 13.73406 H 56.672701 v -13.73406 h 18.745994 m 0,16.709787 V 110.51224 H 56.672701 V 96.778183 h 18.745994 m 0,33.419577 v 13.73406 H 56.672701 v -13.73406 h 18.745994 m 0,16.70978 V 160.6416 H 56.672701 v -13.73406 h 18.745994 m 0,16.70979 v 13.73406 H 56.672701 v -13.73406 h 18.745994 m 0,33.41958 v 13.73406 H 56.672701 v -13.73406 h 18.745994 m 0,16.70978 v 13.73406 H 56.672701 v -13.73406 h 18.745994 m 0,-33.41957 v 13.73406 H 56.672701 v -13.73406 h 18.745994 m 0,-66.83915 v 13.73406 H 56.672701 v -13.73406 h 18.745994 m 0,-66.839149 V 60.382882 H 56.672701 V 46.648821 h 18.745994 m 0,-33.419574 v 13.73406 H 56.672701 v -13.73406 h 18.745994 m 108.608605,0 v 13.73406 h -18.74599 v -13.73406 h 18.74599 m 0,33.419574 V 60.382882 H 165.28131 V 46.648821 h 18.74599 m 0,66.839149 v 13.73406 h -18.74599 v -13.73406 h 18.74599 m 0,66.83915 v 13.73406 h -18.74599 v -13.73406 h 18.74599 m 0,33.41957 v 13.73406 h -18.74599 v -13.73406 h 18.74599 m 0,-16.70978 v 13.73406 h -18.74599 v -13.73406 h 18.74599 m 0,-33.41958 v 13.73406 h -18.74599 v -13.73406 h 18.74599 m 0,-16.70979 v 13.73406 h -18.74599 v -13.73406 h 18.74599 m 0,-16.70978 v 13.73406 h -18.74599 v -13.73406 h 18.74599 m 0,-33.419577 V 110.51224 H 165.28131 V 96.778183 h 18.74599 m 0,-16.709787 v 13.73406 h -18.74599 v -13.73406 h 18.74599 m 0,-16.709787 v 13.73406 h -18.74599 v -13.73406 h 18.74599 m 0,-33.419575 v 13.73406 H 165.28131 V 29.939034 H 184.0273 M 162.30558,13.229247 v 13.73406 h -18.746 v -13.73406 h 18.746 m 0,33.419574 v 13.734061 h -18.746 V 46.648821 h 18.746 m 0,66.839149 v 13.73406 h -18.746 v -13.73406 h 18.746 m 0,66.83915 v 13.73406 h -18.746 v -13.73406 h 18.746 m 0,33.41957 v 13.73406 h -18.746 v -13.73406 h 18.746 m 0,-16.70978 v 13.73406 h -18.746 v -13.73406 h 18.746 m 0,-33.41958 v 13.73406 h -18.746 v -13.73406 h 18.746 m 0,-16.70979 v 13.73406 h -18.746 v -13.73406 h 18.746 m 0,-16.70978 v 13.73406 h -18.746 v -13.73406 h 18.746 m 0,-33.419577 v 13.734057 h -18.746 V 96.778183 h 18.746 m 0,-16.709787 v 13.73406 h -18.746 v -13.73406 h 18.746 m 0,-16.709787 v 13.73406 h -18.746 v -13.73406 h 18.746 m 0,-33.419575 v 13.73406 h -18.746 v -13.73406 h 18.746 m -21.72172,0 v 13.73406 h -18.746 v -13.73406 h 18.746 m 0,33.419575 v 13.73406 h -18.746 v -13.73406 h 18.746 m 0,16.709787 v 13.73406 h -18.746 v -13.73406 h 18.746 m 0,16.709787 v 13.734057 h -18.746 V 96.778183 h 18.746 m 0,33.419577 v 13.73406 h -18.746 v -13.73406 h 18.746 m 0,16.70978 v 13.73406 h -18.746 v -13.73406 h 18.746 m 0,16.70979 v 13.73406 h -18.746 v -13.73406 h 18.746 m 0,33.41958 v 13.73406 h -18.746 v -13.73406 h 18.746 m 0,16.70978 v 13.73406 h -18.746 v -13.73406 h 18.746 m 0,-33.41957 v 13.73406 h -18.746 v -13.73406 h 18.746 m 0,-66.83915 v 13.73406 h -18.746 v -13.73406 h 18.746 m 0,-66.839149 v 13.734061 h -18.746 V 46.648821 h 18.746 m 0,-33.419574 v 13.73406 h -18.746 v -13.73406 h 18.746 m 65.16516,16.709787 v 13.73406 h -18.74599 v -13.73406 h 18.74599 m 0,33.419575 v 13.73406 h -18.74599 v -13.73406 h 18.74599 m 0,16.709787 v 13.73406 h -18.74599 v -13.73406 h 18.74599 m 0,16.709787 V 110.51224 H 187.00303 V 96.778183 h 18.74599 m 0,33.419577 v 13.73406 h -18.74599 v -13.73406 h 18.74599 m 0,16.70978 v 13.73406 h -18.74599 v -13.73406 h 18.74599 m 0,16.70979 v 13.73406 h -18.74599 v -13.73406 h 18.74599 m 0,33.41958 v 13.73406 h -18.74599 v -13.73406 h 18.74599 m 0,16.70978 v 13.73406 h -18.74599 v -13.73406 h 18.74599 m 0,-33.41957 v 13.73406 h -18.74599 v -13.73406 h 18.74599 m 0,-66.83915 v 13.73406 h -18.74599 v -13.73406 h 18.74599 m 0,-66.839149 V 60.382882 H 187.00303 V 46.648821 h 18.74599 m 0,-33.419574 v 13.73406 h -18.74599 v -13.73406 h 18.74599 m 21.72172,16.709787 v 13.73406 h -18.74599 v -13.73406 h 18.74599 m 0,33.419575 v 13.73406 h -18.74599 v -13.73406 h 18.74599 m 0,16.709787 v 13.73406 h -18.74599 v -13.73406 h 18.74599 m 0,16.709787 V 110.51224 H 208.72475 V 96.778183 h 18.74599 m 0,33.419577 v 13.73406 h -18.74599 v -13.73406 h 18.74599 m 0,16.70978 v 13.73406 h -18.74599 v -13.73406 h 18.74599 m 0,16.70979 v 13.73406 h -18.74599 v -13.73406 h 18.74599 m 0,33.41958 v 13.73406 h -18.74599 v -13.73406 h 18.74599 m 0,16.70978 v 13.73406 h -18.74599 v -13.73406 h 18.74599 m 0,-33.41957 v 13.73406 h -18.74599 v -13.73406 h 18.74599 m 0,-66.83915 v 13.73406 h -18.74599 v -13.73406 h 18.74599 m 0,-66.839149 V 60.382882 H 208.72475 V 46.648821 h 18.74599 m 0,-33.419574 v 13.73406 h -18.74599 v -13.73406 h 18.74599"
     style="fill:none;stroke:#0000ff;stroke-width:0.01;stroke-linecap:round;stroke-linejoin:round;stroke-miterlimit:4;stroke-dasharray:none;stroke-opacity:1"
     id="face0-cut" />
  <path
     d="m 9.7366221,230.97339 m 221.2267579,0 m 0,-221.2367798 m -221.2267579,0 M 118.86214,13.229247 m 0,13.73406 m -18.746,0 m 0,-13.73406 m 18.746,33.419574 m 0,13.734061 m -18.746,0 m 0,-13.734061 m 18.746,66.839149 m 0,13.73406 m -18.746,0 m 0,-13.73406 m 18.746,66.83915 m 0,13.73406 m -18.746,0 m 0,-13.73406 m 18.746,33.41957 m 0,13.73406 m -18.746,0 m 0,-13.73406 m 18.746,-16.70978 m 0,13.73406 m -18.746,0 m 0,-13.73406 m 18.746,-33.41958 m 0,13.73406 m -18.746,0 m 0,-13.73406 m 18.746,-16.70979 m 0,13.73406 m -18.746,0 m 0,-13.73406 m 18.746,-16.70978 m 0,13.73406 m -18.746,0 m 0,-13.73406 m 18.746,-33.419577 m 0,13.734057 m -18.746,0 m 0,-13.734057 m 18.746,-16.709787 m 0,13.73406 m -18.746,0 m 0,-13.73406 m 18.746,-16.709787 m 0,13.73406 m -18.746,0 m 0,-13.73406 m 18.746,-33.419575 m 0,13.73406 m -18.746,0 m 0,-13.73406 M 97.140416,13.229247 m 0,13.73406 m -18.745994,0 m 0,-13.73406 m 18.745994,33.419574 m 0,13.734061 m -18.745994,0 m 0,-13.734061 m 18.745994,66.839149 m 0,13.73406 m -18.745994,0 m 0,-13.73406 m 18.745994,66.83915 m 0,13.73406 m -18.745994,0 m 0,-13.73406 m 18.745994,33.41957 m 0,13.73406 m -18.745994,0 m 0,-13.73406 m 18.745994,-16.70978 m 0,13.73406 m -18.745994,0 m 0,-13.73406 m 18.745994,-33.41958 m 0,13.73406 m -18.745994,0 m 0,-13.73406 m 18.745994,-16.70979 m 0,13.73406 m -18.745994,0 m 0,-13.73406 m 18.745994,-16.70978 m 0,13.73406 m -18.745994,0 m 0,-13.73406 M 97.140416,96.778183 m 0,13.734057 m -18.745994,0 m 0,-13.734057 M 97.140416,80.068396 m 0,13.73406 m -18.745994,0 m 0,-13.73406 M 97.140416,63.358609 m 0,13.73406 m -18.745994,0 m 0,-13.73406 M 97.140416,29.939034 m 0,13.73406 m -18.745994,0 m 0,-13.73406 M 31.975253,13.229247 m 0,13.73406 m -18.745994,0 m 0,-13.73406 m 18.745994,33.419574 m 0,13.734061 m -18.745994,0 m 0,-13.734061 m 18.745994,66.839149 m 0,13.73406 m -18.745994,0 m 0,-13.73406 m 18.745994,66.83915 m 0,13.73406 m -18.745994,0 m 0,-13.73406 m 18.745994,33.41957 m 0,13.73406 m -18.745994,0 m 0,-13.73406 m 18.745994,-16.70978 m 0,13.73406 m -18.745994,0 m 0,-13.73406 m 18.745994,-33.41958 m 0,13.73406 m -18.745994,0 m 0,-13.73406 m 18.745994,-16.70979 m 0,13.73406 m -18.745994,0 m 0,-13.73406 m 18.745994,-16.70978 m 0,13.73406 m -18.745994,0 m 0,-13.73406 M 31.975253,96.778183 m 0,13.734057 m -18.745994,0 m 0,-13.734057 M 31.975253,80.068396 m 0,13.73406 m -18.745994,0 m 0,-13.73406 M 31.975253,63.358609 m 0,13.73406 m -18.745994,0 m 0,-13.73406 M 31.975253,29.939034 m 0,13.73406 m -18.745994,0 m 0,-13.73406 m 40.467715,0 m 0,13.73406 m -18.745994,0 m 0,-13.73406 m 18.745994,33.419575 m 0,13.73406 m -18.745994,0 m 0,-13.73406 m 18.745994,16.709787 m 0,13.73406 m -18.745994,0 m 0,-13.73406 m 18.745994,16.709787 m 0,13.734057 m -18.745994,0 m 0,-13.734057 m 18.745994,33.419577 m 0,13.73406 m -18.745994,0 m 0,-13.73406 m 18.745994,16.70978 m 0,13.73406 m -18.745994,0 m 0,-13.73406 m 18.745994,16.70979 m 0,13.73406 m -18.745994,0 m 0,-13.73406 m 18.745994,33.41958 m 0,13.73406 m -18.745994,0 m 0,-13.73406 m 18.745994,16.70978 m 0,13.73406 m -18.745994,0 m 0,-13.73406 m 18.745994,-33.41957 m 0,13.73406 m -18.745994,0 m 0,-13.73406 m 18.745994,-66.83915 m 0,13.73406 m -18.745994,0 m 0,-13.73406 M 53.696974,46.648821 m 0,13.734061 m -18.745994,0 m 0,-13.734061 M 53.696974,13.229247 m 0,13.73406 m -18.745994,0 m 0,-13.73406 m 40.467715,16.709787 m 0,13.73406 m -18.745994,0 m 0,-13.73406 m 18.745994,33.419575 m 0,13.73406 m -18.745994,0 m 0,-13.73406 m 18.745994,16.709787 m 0,13.73406 m -18.745994,0 m 0,-13.73406 m 18.745994,16.709787 m 0,13.734057 m -18.745994,0 m 0,-13.734057 m 18.745994,33.419577 m 0,13.73406 m -18.745994,0 m 0,-13.73406 m 18.745994,16.70978 m 0,13.73406 m -18.745994,0 m 0,-13.73406 m 18.745994,16.70979 m 0,13.73406 m -18.745994,0 m 0,-13.73406 m 18.745994,33.41958 m 0,13.73406 m -18.745994,0 m 0,-13.73406 m 18.745994,16.70978 m 0,13.73406 m -18.745994,0 m 0,-13.73406 m 18.745994,-33.41957 m 0,13.73406 m -18.745994,0 m 0,-13.73406 m 18.745994,-66.83915 m 0,13.73406 m -18.745994,0 m 0,-13.73406 M 75.418695,46.648821 m 0,13.734061 m -18.745994,0 m 0,-13.734061 M 75.418695,13.229247 m 0,13.73406 m -18.745994,0 m 0,-13.73406 m 127.354599,0 m 0,13.73406 m -18.74599,0 m 0,-13.73406 m 18.74599,33.419574 m 0,13.734061 m -18.74599,0 m 0,-13.734061 m 18.74599,66.839149 m 0,13.73406 m -18.74599,0 m 0,-13.73406 m 18.74599,66.83915 m 0,13.73406 m -18.74599,0 m 0,-13.73406 m 18.74599,33.41957 m 0,13.73406 m -18.74599,0 m 0,-13.73406 m 18.74599,-16.70978 m 0,13.73406 m -18.74599,0 m 0,-13.73406 m 18.74599,-33.41958 m 0,13.73406 m -18.74599,0 m 0,-13.73406 m 18.74599,-16.70979 m 0,13.73406 m -18.74599,0 m 0,-13.73406 m 18.74599,-16.70978 m 0,13.73406 m -18.74599,0 m 0,-13.73406 M 184.0273,96.778183 m 0,13.734057 m -18.74599,0 m 0,-13.734057 M 184.0273,80.068396 m 0,13.73406 m -18.74599,0 m 0,-13.73406 M 184.0273,63.358609 m 0,13.73406 m -18.74599,0 m 0,-13.73406 M 184.0273,29.939034 m 0,13.73406 m -18.74599,0 m 0,-13.73406 m -2.97573,-16.709787 m 0,13.73406 m -18.746,0 m 0,-13.73406 m 18.746,33.419574 m 0,13.734061 m -18.746,0 m 0,-13.734061 m 18.746,66.839149 m 0,13.73406 m -18.746,0 m 0,-13.73406 m 18.746,66.83915 m 0,13.73406 m -18.746,0 m 0,-13.73406 m 18.746,33.41957 m 0,13.73406 m -18.746,0 m 0,-13.73406 m 18.746,-16.70978 m 0,13.73406 m -18.746,0 m 0,-13.73406 m 18.746,-33.41958 m 0,13.73406 m -18.746,0 m 0,-13.73406 m 18.746,-16.70979 m 0,13.73406 m -18.746,0 m 0,-13.73406 m 18.746,-16.70978 m 0,13.73406 m -18.746,0 m 0,-13.73406 m 18.746,-33.419577 m 0,13.734057 m -18.746,0 m 0,-13.734057 m 18.746,-16.709787 m 0,13.73406 m -18.746,0 m 0,-13.73406 m 18.746,-16.709787 m 0,13.73406 m -18.746,0 m 0,-13.73406 m 18.746,-33.419575 m 0,13.73406 m -18.746,0 m 0,-13.73406 m -2.97572,0 m 0,13.73406 m -18.746,0 m 0,-13.73406 m 18.746,33.419575 m 0,13.73406 m -18.746,0 m 0,-13.73406 m 18.746,16.709787 m 0,13.73406 m -18.746,0 m 0,-13.73406 m 18.746,16.709787 m 0,13.734057 m -18.746,0 m 0,-13.734057 m 18.746,33.419577 m 0,13.73406 m -18.746,0 m 0,-13.73406 m 18.746,16.70978 m 0,13.73406 m -18.746,0 m 0,-13.73406 m 18.746,16.70979 m 0,13.73406 m -18.746,0 m 0,-13.73406 m 18.746,33.41958 m 0,13.73406 m -18.746,0 m 0,-13.73406 m 18.746,16.70978 m 0,13.73406 m -18.746,0 m 0,-13.73406 m 18.746,-33.41957 m 0,13.73406 m -18.746,0 m 0,-13.73406 m 18.746,-66.83915 m 0,13.73406 m -18.746,0 m 0,-13.73406 m 18.746,-66.839149 m 0,13.734061 m -18.746,0 m 0,-13.734061 m 18.746,-33.419574 m 0,13.73406 m -18.746,0 m 0,-13.73406 m 83.91116,16.709787 m 0,13.73406 m -18.74599,0 m 0,-13.73406 m 18.74599,33.419575 m 0,13.73406 m -18.74599,0 m 0,-13.73406 m 18.74599,16.709787 m 0,13.73406 m -18.74599,0 m 0,-13.73406 m 18.74599,16.709787 m 0,13.734057 m -18.74599,0 m 0,-13.734057 m 18.74599,33.419577 m 0,13.73406 m -18.74599,0 m 0,-13.73406 m 18.74599,16.70978 m 0,13.73406 m -18.74599,0 m 0,-13.73406 m 18.74599,16.70979 m 0,13.73406 m -18.74599,0 m 0,-13.73406 m 18.74599,33.41958 m 0,13.73406 m -18.74599,0 m 0,-13.73406 m 18.74599,16.70978 m 0,13.73406 m -18.74599,0 m 0,-13.73406 m 18.74599,-33.41957 m 0,13.73406 m -18.74599,0 m 0,-13.73406 m 18.74599,-66.83915 m 0,13.73406 m -18.74599,0 m 0,-13.73406 m 18.74599,-66.839149 m 0,13.734061 m -18.74599,0 m 0,-13.734061 m 18.74599,-33.419574 m 0,13.73406 m -18.74599,0 m 0,-13.73406 m 40.46771,16.709787 m 0,13.73406 m -18.74599,0 m 0,-13.73406 m 18.74599,33.419575 m 0,13.73406 m -18.74599,0 m 0,-13.73406 m 18.74599,16.709787 m 0,13.73406 m -18.74599,0 m 0,-13.73406 m 18.74599,16.709787 m 0,13.734057 m -18.74599,0 m 0,-13.734057 m 18.74599,33.419577 m 0,13.73406 m -18.74599,0 m 0,-13.73406 m 18.74599,16.70978 m 0,13.73406 m -18.74599,0 m 0,-13.73406 m 18.74599,16.70979 m 0,13.73406 m -18.74599,0 m 0,-13.73406 m 18.74599,33.41958 m 0,13.73406 m -18.74599,0 m 0,-13.73406 m 18.74599,16.70978 m 0,13.73406 m -18.74599,0 m 0,-13.73406 m 18.74599,-33.41957 m 0,13.73406 m -18.74599,0 m 0,-13.73406 m 18.74599,-66.83915 m 0,13.73406 m -18.74599,0 m 0,-13.73406 m 18.74599,-66.839149 m 0,13.734061 m -18.74599,0 m 0,-13.734061 m 18.74599,-33.419574 m 0,13.73406 m -18.74599,0 m 0,-13.73406"
     style="fill:none;stroke:#0000ff;stroke-width:0.01;stroke-linecap:round;stroke-linejoin:round;stroke-miterlimit:4;stroke-dasharray:none;stroke-opacity:1"
     id="face0-interior" />
  <path
     d="m 9.7366221,230.97339 m 221.2267579,0 m 0,-221.2367798 m -221.2267579,0 M 118.86214,13.229247 m 0,13.73406 m -18.746,0 m 0,-13.73406 m 18.746,33.419574 m 0,13.734061 m -18.746,0 m 0,-13.734061 m 18.746,66.839149 m 0,13.73406 m -18.746,0 m 0,-13.73406 m 18.746,66.83915 m 0,13.73406 m -18.746,0 m 0,-13.73406 m 18.746,33.41957 m 0,13.73406 m -18.746,0 m 0,-13.73406 m 18.746,-16.70978 m 0,13.73406 m -18.746,0 m 0,-13.73406 m 18.746,-33.41958 m 0,13.73406 m -18.746,0 m 0,-13.73406 m 18.746,-16.70979 m 0,13.73406 m -18.746,0 m 0,-13.73406 m 18.746,-16.70978 m 0,13.73406 m -18.746,0 m 0,-13.73406 m 18.746,-33.419577 m 0,13.734057 m -18.746,0 m 0,-13.734057 m 18.746,-16.709787 m 0,13.73406 m -18.746,0 m 0,-13.73406 m 18.746,-16.709787 m 0,13.73406 m -18.746,0 m 0,-13.73406 m 18.746,-33.419575 m 0,13.73406 m -18.746,0 m 0,-13.73406 M 97.140416,13.229247 m 0,13.73406 m -18.745994,0 m 0,-13.73406 m 18.745994,33.419574 m 0,13.734061 m -18.745994,0 m 0,-13.734061 m 18.745994,66.839149 m 0,13.73406 m -18.745994,0 m 0,-13.73406 m 18.745994,66.83915 m 0,13.73406 m -18.745994,0 m 0,-13.73406 m 18.745994,33.41957 m 0,13.73406 m -18.745994,0 m 0,-13.73406 m 18.745994,-16.70978 m 0,13.73406 m -18.745994,0 m 0,-13.73406 m 18.745994,-33.41958 m 0,13.73406 m -18.745994,0 m 0,-13.73406 m 18.745994,-16.70979 m 0,13.73406 m -18.745994,0 m 0,-13.73406 m 18.745994,-16.70978 m 0,13.73406 m -18.745994,0 m 0,-13.73406 M 97.140416,96.778183 m 0,13.734057 m -18.745994,0 m 0,-13.734057 M 97.140416,80.068396 m 0,13.73406 m -18.745994,0 m 0,-13.73406 M 97.140416,63.358609 m 0,13.73406 m -18.745994,0 m 0,-13.73406 M 97.140416,29.939034 m 0,13.73406 m -18.745994,0 m 0,-13.73406 M 31.975253,13.229247 m 0,13.73406 m -18.745994,0 m 0,-13.73406 m 18.745994,33.419574 m 0,13.734061 m -18.745994,0 m 0,-13.734061 m 18.745994,66.839149 m 0,13.73406 m -18.745994,0 m 0,-13.73406 m 18.745994,66.83915 m 0,13.73406 m -18.745994,0 m 0,-13.73406 m 18.745994,33.41957 m 0,13.73406 m -18.745994,0 m 0,-13.73406 m 18.745994,-16.70978 m 0,13.73406 m -18.745994,0 m 0,-13.73406 m 18.745994,-33.41958 m 0,13.73406 m -18.745994,0 m 0,-13.73406 m 18.745994,-16.70979 m 0,13.73406 m -18.745994,0 m 0,-13.73406 m 18.745994,-16.70978 m 0,13.73406 m -18.745994,0 m 0,-13.73406 M 31.975253,96.778183 m 0,13.734057 m -18.745994,0 m 0,-13.734057 M 31.975253,80.068396 m 0,13.73406 m -18.745994,0 m 0,-13.73406 M 31.975253,63.358609 m 0,13.73406 m -18.745994,0 m 0,-13.73406 M 31.975253,29.939034 m 0,13.73406 m -18.745994,0 m 0,-13.73406 m 40.467715,0 m 0,13.73406 m -18.745994,0 m 0,-13.73406 m 18.745994,33.419575 m 0,13.73406 m -18.745994,0 m 0,-13.73406 m 18.745994,16.709787 m 0,13.73406 m -18.745994,0 m 0,-13.73406 m 18.745994,16.709787 m 0,13.734057 m -18.745994,0 m 0,-13.734057 m 18.745994,33.419577 m 0,13.73406 m -18.745994,0 m 0,-13.73406 m 18.745994,16.70978 m 0,13.73406 m -18.745994,0 m 0,-13.73406 m 18.745994,16.70979 m 0,13.73406 m -18.745994,0 m 0,-13.73406 m 18.745994,33.41958 m 0,13.73406 m -18.745994,0 m 0,-13.73406 m 18.745994,16.70978 m 0,13.73406 m -18.745994,0 m 0,-13.73406 m 18.745994,-33.41957 m 0,13.73406 m -18.745994,0 m 0,-13.73406 m 18.745994,-66.83915 m 0,13.73406 m -18.745994,0 m 0,-13.73406 M 53.696974,46.648821 m 0,13.734061 m -18.745994,0 m 0,-13.734061 M 53.696974,13.229247 m 0,13.73406 m -18.745994,0 m 0,-13.73406 m 40.467715,16.709787 m 0,13.73406 m -18.745994,0 m 0,-13.73406 m 18.745994,33.419575 m 0,13.73406 m -18.745994,0 m 0,-13.73406 m 18.745994,16.709787 m 0,13.73406 m -18.745994,0 m 0,-13.73406 m 18.745994,16.709787 m 0,13.734057 m -18.745994,0 m 0,-13.734057 m 18.745994,33.419577 m 0,13.73406 m -18.745994,0 m 0,-13.73406 m 18.745994,16.70978 m 0,13.73406 m -18.745994,0 m 0,-13.73406 m 18.745994,16.70979 m 0,13.73406 m -18.745994,0 m 0,-13.73406 m 18.745994,33.41958 m 0,13.73406 m -18.745994,0 m 0,-13.73406 m 18.745994,16.70978 m 0,13.73406 m -18.745994,0 m 0,-13.73406 m 18.745994,-33.41957 m 0,13.73406 m -18.745994,0 m 0,-13.73406 m 18.745994,-66.83915 m 0,13.73406 m -18.745994,0 m 0,-13.73406 M 75.418695,46.648821 m 0,13.734061 m -18.745994,0 m 0,-13.734061 M 75.418695,13.229247 m 0,13.73406 m -18.745994,0 m 0,-13.73406 m 127.354599,0 m 0,13.73406 m -18.74599,0 m 0,-13.73406 m 18.74599,33.419574 m 0,13.734061 m -18.74599,0 m 0,-13.734061 m 18.74599,66.839149 m 0,13.73406 m -18.74599,0 m 0,-13.73406 m 18.74599,66.83915 m 0,13.73406 m -18.74599,0 m 0,-13.73406 m 18.74599,33.41957 m 0,13.73406 m -18.74599,0 m 0,-13.73406 m 18.74599,-16.70978 m 0,13.73406 m -18.74599,0 m 0,-13.73406 m 18.74599,-33.41958 m 0,13.73406 m -18.74599,0 m 0,-13.73406 m 18.74599,-16.70979 m 0,13.73406 m -18.74599,0 m 0,-13.73406 m 18.74599,-16.70978 m 0,13.73406 m -18.74599,0 m 0,-13.73406 M 184.0273,96.778183 m 0,13.734057 m -18.74599,0 m 0,-13.734057 M 184.0273,80.068396 m 0,13.73406 m -18.74599,0 m 0,-13.73406 M 184.0273,63.358609 m 0,13.73406 m -18.74599,0 m 0,-13.73406 M 184.0273,29.939034 m 0,13.73406 m -18.74599,0 m 0,-13.73406 m -2.97573,-16.709787 m 0,13.73406 m -18.746,0 m 0,-13.73406 m 18.746,33.419574 m 0,13.734061 m -18.746,0 m 0,-13.734061 m 18.746,66.839149 m 0,13.73406 m -18.746,0 m 0,-13.73406 m 18.746,66.83915 m 0,13.73406 m -18.746,0 m 0,-13.73406 m 18.746,33.41957 m 0,13.73406 m -18.746,0 m 0,-13.73406 m 18.746,-16.70978 m 0,13.73406 m -18.746,0 m 0,-13.73406 m 18.746,-33.41958 m 0,13.73406 m -18.746,0 m 0,-13.73406 m 18.746,-16.70979 m 0,13.73406 m -18.746,0 m 0,-13.73406 m 18.746,-16.70978 m 0,13.73406 m -18.746,0 m 0,-13.73406 m 18.746,-33.419577 m 0,13.734057 m -18.746,0 m 0,-13.734057 m 18.746,-16.709787 m 0,13.73406 m -18.746,0 m 0,-13.73406 m 18.746,-16.709787 m 0,13.73406 m -18.746,0 m 0,-13.73406 m 18.746,-33.419575 m 0,13.73406 m -18.746,0 m 0,-13.73406 m -2.97572,0 m 0,13.73406 m -18.746,0 m 0,-13.73406 m 18.746,33.419575 m 0,13.73406 m -18.746,0 m 0,-13.73406 m 18.746,16.709787 m 0,13.73406 m -18.746,0 m 0,-13.73406 m 18.746,16.709787 m 0,13.734057 m -18.746,0 m 0,-13.734057 m 18.746,33.419577 m 0,13.73406 m -18.746,0 m 0,-13.73406 m 18.746,16.70978 m 0,13.73406 m -18.746,0 m 0,-13.73406 m 18.746,16.70979 m 0,13.73406 m -18.746,0 m 0,-13.73406 m 18.746,33.41958 m 0,13.73406 m -18.746,0 m 0,-13.73406 m 18.746,16.70978 m 0,13.73406 m -18.746,0 m 0,-13.73406 m 18.746,-33.41957 m 0,13.73406 m -18.746,0 m 0,-13.73406 m 18.746,-66.83915 m 0,13.73406 m -18.746,0 m 0,-13.73406 m 18.746,-66.839149 m 0,13.734061 m -18.746,0 m 0,-13.734061 m 18.746,-33.419574 m 0,13.73406 m -18.746,0 m 0,-13.73406 m 83.91116,16.709787 m 0,13.73406 m -18.74599,0 m 0,-13.73406 m 18.74599,33.419575 m 0,13.73406 m -18.74599,0 m 0,-13.73406 m 18.74599,16.709787 m 0,13.73406 m -18.74599,0 m 0,-13.73406 m 18.74599,16.709787 m 0,13.734057 m -18.74599,0 m 0,-13.734057 m 18.74599,33.419577 m 0,13.73406 m -18.74599,0 m 0,-13.73406 m 18.74599,16.70978 m 0,13.73406 m -18.74599,0 m 0,-13.73406 m 18.74599,16.70979 m 0,13.73406 m -18.74599,0 m 0,-13.73406 m 18.74599,33.41958 m 0,13.73406 m -18.74599,0 m 0,-13.73406 m 18.74599,16.70978 m 0,13.73406 m -18.74599,0 m 0,-13.73406 m 18.74599,-33.41957 m 0,13.73406 m -18.74599,0 m 0,-13.73406 m 18.74599,-66.83915 m 0,13.73406 m -18.74599,0 m 0,-13.73406 m 18.74599,-66.839149 m 0,13.734061 m -18.74599,0 m 0,-13.734061 m 18.74599,-33.419574 m 0,13.73406 m -18.74599,0 m 0,-13.73406 m 40.46771,16.709787 m 0,13.73406 m -18.74599,0 m 0,-13.73406 m 18.74599,33.419575 m 0,13.73406 m -18.74599,0 m 0,-13.73406 m 18.74599,16.709787 m 0,13.73406 m -18.74599,0 m 0,-13.73406 m 18.74599,16.709787 m 0,13.734057 m -18.74599,0 m 0,-13.734057 m 18.74599,33.419577 m 0,13.73406 m -18.74599,0 m 0,-13.73406 m 18.74599,16.70978 m 0,13.73406 m -18.74599,0 m 0,-13.73406 m 18.74599,16.70979 m 0,13.73406 m -18.74599,0 m 0,-13.73406 m 18.74599,33.41958 m 0,13.73406 m -18.74599,0 m 0,-13.73406 m 18.74599,16.70978 m 0,13.73406 m -18.74599,0 m 0,-13.73406 m 18.74599,-33.41957 m 0,13.73406 m -18.74599,0 m 0,-13.73406 m 18.74599,-66.83915 m 0,13.73406 m -18.74599,0 m 0,-13.73406 m 18.74599,-66.839149 m 0,13.734061 m -18.74599,0 m 0,-13.734061 m 18.74599,-33.419574 m 0,13.73406 m -18.74599,0 m 0,-13.73406"
     style="fill:none;stroke:#0000ff;stroke-width:0.01;stroke-linecap:round;stroke-linejoin:round;stroke-miterlimit:4;stroke-dasharray:none;stroke-opacity:1"
     id="path64" />
</svg>
