  0
SECTION
  2
HEADER
  9
$ACADVER
  1
AC1014
  9
$HANDSEED
  5
FFFF
  9
$MEASUREMENT
 70
     1
  0
ENDSEC
  0
SECTION
  2
TABLES
  0
TABLE
  2
VPORT
  5
8
330
0
100
AcDbSymbolTable
 70
     4
  0
VPORT
  5
2E
330
8
100
AcDbSymbolTableRecord
100
AcDbViewportTableRecord
  2
*ACTIVE
 70
     0
 10
0.0
 20
0.0
 11
1.0
 21
1.0
 12
210.0
 22
148.5
 13
0.0
 23
0.0
 14
10.0
 24
10.0
 15
10.0
 25
10.0
 16
0.0
 26
0.0
 36
1.0
 17
0.0
 27
0.0
 37
0.0
 40
341.0
 41
1.24
 42
50.0
 43
0.0
 44
0.0
 50
0.0
 51
0.0
 71
     0
 72
   100
 73
     1
 74
     3
 75
     0
 76
     0
 77
     0
 78
     0
  0
ENDTAB
  0
TABLE
  2
LTYPE
  5
5
330
0
100
AcDbSymbolTable
 70
     1
  0
LTYPE
  5
14
330
5
100
AcDbSymbolTableRecord
100
AcDbLinetypeTableRecord
  2
BYBLOCK
 70
     0
  3

 72
    65
 73
     0
 40
0.0
  0
LTYPE
  5
15
330
5
100
AcDbSymbolTableRecord
100
AcDbLinetypeTableRecord
  2
BYLAYER
 70
     0
  3

 72
    65
 73
     0
 40
0.0
  0
LTYPE
  5
16
330
5
100
AcDbSymbolTableRecord
100
AcDbLinetypeTableRecord
  2
CONTINUOUS
 70
     0
  3
Solid line
 72
    65
 73
     0
 40
0.0
  0
ENDTAB
  0
TABLE
  2
LAYER
  5
2
100
AcDbSymbolTable
 70
2
  0
LAYER
  5
50
100
AcDbSymbolTableRecord
100
AcDbLayerTableRecord
  2
0
 70
0
  6
CONTINUOUS
  0
LAYER
  5
51
100
AcDbSymbolTableRecord
100
AcDbLayerTableRecord
  2
Layer_1
 70
0
  6
CONTINUOUS
  0
ENDTAB
  0
TABLE
  2
STYLE
  5
3
330
0
100
AcDbSymbolTable
 70
     1
  0
STYLE
  5
11
330
3
100
AcDbSymbolTableRecord
100
AcDbTextStyleTableRecord
  2
STANDARD
 70
     0
 40
0.0
 41
1.0
 50
0.0
 71
     0
 42
2.5
  3
txt
  4

  0
ENDTAB
  0
TABLE
  2
VIEW
  5
6
330
0
100
AcDbSymbolTable
 70
     0
  0
ENDTAB
  0
TABLE
  2
UCS
  5
7
330
0
100
AcDbSymbolTable
 70
     0
  0
ENDTAB
  0
TABLE
  2
APPID
  5
9
330
0
100
AcDbSymbolTable
 70
     2
  0
APPID
  5
12
330
9
100
AcDbSymbolTableRecord
100
AcDbRegAppTableRecord
  2
ACAD
 70
     0
  0
ENDTAB
  0
TABLE
  2
DIMSTYLE
  5
A
330
0
100
AcDbSymbolTable
 70
     1
  0
DIMSTYLE
105
27
330
A
100
AcDbSymbolTableRecord
100
AcDbDimStyleTableRecord
  2
ISO-25
 70
     0
  3

  4

  5

  6

  7

 40
1.0
 41
2.5
 42
0.625
 43
3.75
 44
1.25
 45
0.0
 46
0.0
 47
0.0
 48
0.0
140
2.5
141
2.5
142
0.0
143
0.03937007874016
144
1.0
145
0.0
146
1.0
147
0.625
 71
     0
 72
     0
 73
     0
 74
     0
 75
     0
 76
     0
 77
     1
 78
     8
170
     0
171
     3
172
     1
173
     0
174
     0
175
     0
176
     0
177
     0
178
     0
270
     2
271
     2
272
     2
273
     2
274
     3
340
11
275
     0
280
     0
281
     0
282
     0
283
     0
284
     8
285
     0
286
     0
287
     3
288
     0
  0
ENDTAB
  0
TABLE
  2
BLOCK_RECORD
  5
1
330
0
100
AcDbSymbolTable
 70
     1
  0
BLOCK_RECORD
  5
1F
330
1
100
AcDbSymbolTableRecord
100
AcDbBlockTableRecord
  2
*MODEL_SPACE
  0
BLOCK_RECORD
  5
1B
330
1
100
AcDbSymbolTableRecord
100
AcDbBlockTableRecord
  2
*PAPER_SPACE
  0
ENDTAB
  0
ENDSEC
  0
SECTION
  2
BLOCKS
  0
BLOCK
  5
20
330
1F
100
AcDbEntity
  8
0
100
AcDbBlockBegin
  2
*MODEL_SPACE
 70
     0
 10
0.0
 20
0.0
 30
0.0
  3
*MODEL_SPACE
  1

  0
ENDBLK
  5
21
330
1F
100
AcDbEntity
  8
0
100
AcDbBlockEnd
  0
BLOCK
  5
1C
330
1B
100
AcDbEntity
 67
     1
  8
0
100
AcDbBlockBegin
  2
*PAPER_SPACE
  1

  0
ENDBLK
  5
1D
330
1B
100
AcDbEntity
 67
     1
  8
0
100
AcDbBlockEnd
  0
ENDSEC
  0
SECTION
  2
ENTITIES
  0
LWPOLYLINE
  5
100
100
AcDbEntity
  8
Layer_1
 62
5
100
AcDbPolyline
 90
4
 70
1
 10
-89.168389
 20
248.113383
 30
0.0
 10
-89.168389
 20
26.886620
 30
0.0
 10
132.068390
 20
26.886620
 30
0.0
 10
132.068390
 20
248.113383
 30
0.0
  0
LWPOLYLINE
  5
101
100
AcDbEntity
  8
Layer_1
 62
5
100
AcDbPolyline
 90
4
 70
1
 10
128.575750
 20
138.987870
 30
0.0
 10
114.841690
 20
138.987870
 30
0.0
 10
114.841690
 20
157.733870
 30
0.0
 10
128.575750
 20
157.733870
 30
0.0
  0
LWPOLYLINE
  5
102
100
AcDbEntity
  8
Layer_1
 62
5
100
AcDbPolyline
 90
4
 70
1
 10
95.156178
 20
138.987870
 30
0.0
 10
81.422118
 20
138.987870
 30
0.0
 10
81.422118
 20
157.733870
 30
0.0
 10
95.156178
 20
157.733870
 30
0.0
  0
LWPOLYLINE
  5
103
100
AcDbEntity
  8
Layer_1
 62
5
100
AcDbPolyline
 90
4
 70
1
 10
28.317029
 20
138.987870
 30
0.0
 10
14.582969
 20
138.987870
 30
0.0
 10
14.582969
 20
157.733870
 30
0.0
 10
28.317029
 20
157.733870
 30
0.0
  0
LWPOLYLINE
  5
104
100
AcDbEntity
  8
Layer_1
 62
5
100
AcDbPolyline
 90
4
 70
1
 10
-38.522120
 20
138.987870
 30
0.0
 10
-52.256178
 20
138.987870
 30
0.0
 10
-52.256178
 20
157.733870
 30
0.0
 10
-38.522120
 20
157.733870
 30
0.0
  0
LWPOLYLINE
  5
105
100
AcDbEntity
  8
Layer_1
 62
5
100
AcDbPolyline
 90
4
 70
1
 10
-71.941686
 20
138.987870
 30
0.0
 10
-85.675757
 20
138.987870
 30
0.0
 10
-85.675757
 20
157.733870
 30
0.0
 10
-71.941686
 20
157.733870
 30
0.0
  0
LWPOLYLINE
  5
106
100
AcDbEntity
  8
Layer_1
 62
5
100
AcDbPolyline
 90
4
 70
1
 10
-55.231910
 20
138.987870
 30
0.0
 10
-68.965970
 20
138.987870
 30
0.0
 10
-68.965970
 20
157.733870
 30
0.0
 10
-55.231910
 20
157.733870
 30
0.0
  0
LWPOLYLINE
  5
107
100
AcDbEntity
  8
Layer_1
 62
5
100
AcDbPolyline
 90
4
 70
1
 10
-21.812329
 20
138.987870
 30
0.0
 10
-35.546389
 20
138.987870
 30
0.0
 10
-35.546389
 20
157.733870
 30
0.0
 10
-21.812329
 20
157.733870
 30
0.0
  0
LWPOLYLINE
  5
108
100
AcDbEntity
  8
Layer_1
 62
5
100
AcDbPolyline
 90
4
 70
1
 10
-5.102539
 20
138.987870
 30
0.0
 10
-18.836600
 20
138.987870
 30
0.0
 10
-18.836600
 20
157.733870
 30
0.0
 10
-5.102539
 20
157.733870
 30
0.0
  0
LWPOLYLINE
  5
109
100
AcDbEntity
  8
Layer_1
 62
5
100
AcDbPolyline
 90
4
 70
1
 10
11.607240
 20
138.987870
 30
0.0
 10
-2.126821
 20
138.987870
 30
0.0
 10
-2.126821
 20
157.733870
 30
0.0
 10
11.607240
 20
157.733870
 30
0.0
  0
LWPOLYLINE
  5
10a
100
AcDbEntity
  8
Layer_1
 62
5
100
AcDbPolyline
 90
4
 70
1
 10
45.026815
 20
138.987870
 30
0.0
 10
31.292760
 20
138.987870
 30
0.0
 10
31.292760
 20
157.733870
 30
0.0
 10
45.026815
 20
157.733870
 30
0.0
  0
LWPOLYLINE
  5
10b
100
AcDbEntity
  8
Layer_1
 62
5
100
AcDbPolyline
 90
4
 70
1
 10
61.736602
 20
138.987870
 30
0.0
 10
48.002545
 20
138.987870
 30
0.0
 10
48.002545
 20
157.733870
 30
0.0
 10
61.736602
 20
157.733870
 30
0.0
  0
LWPOLYLINE
  5
10c
100
AcDbEntity
  8
Layer_1
 62
5
100
AcDbPolyline
 90
4
 70
1
 10
78.446391
 20
138.987870
 30
0.0
 10
64.712331
 20
138.987870
 30
0.0
 10
64.712331
 20
157.733870
 30
0.0
 10
78.446391
 20
157.733870
 30
0.0
  0
LWPOLYLINE
  5
10d
100
AcDbEntity
  8
Layer_1
 62
5
100
AcDbPolyline
 90
4
 70
1
 10
111.865960
 20
138.987870
 30
0.0
 10
98.131904
 20
138.987870
 30
0.0
 10
98.131904
 20
157.733870
 30
0.0
 10
111.865960
 20
157.733870
 30
0.0
  0
LWPOLYLINE
  5
10e
100
AcDbEntity
  8
Layer_1
 62
5
100
AcDbPolyline
 90
4
 70
1
 10
128.575750
 20
160.709590
 30
0.0
 10
114.841690
 20
160.709590
 30
0.0
 10
114.841690
 20
179.455580
 30
0.0
 10
128.575750
 20
179.455580
 30
0.0
  0
LWPOLYLINE
  5
10f
100
AcDbEntity
  8
Layer_1
 62
5
100
AcDbPolyline
 90
4
 70
1
 10
95.156178
 20
160.709590
 30
0.0
 10
81.422118
 20
160.709590
 30
0.0
 10
81.422118
 20
179.455580
 30
0.0
 10
95.156178
 20
179.455580
 30
0.0
  0
LWPOLYLINE
  5
110
100
AcDbEntity
  8
Layer_1
 62
5
100
AcDbPolyline
 90
4
 70
1
 10
28.317029
 20
160.709590
 30
0.0
 10
14.582969
 20
160.709590
 30
0.0
 10
14.582969
 20
179.455580
 30
0.0
 10
28.317029
 20
179.455580
 30
0.0
  0
LWPOLYLINE
  5
111
100
AcDbEntity
  8
Layer_1
 62
5
100
AcDbPolyline
 90
4
 70
1
 10
-38.522120
 20
160.709590
 30
0.0
 10
-52.256178
 20
160.709590
 30
0.0
 10
-52.256178
 20
179.455580
 30
0.0
 10
-38.522120
 20
179.455580
 30
0.0
  0
LWPOLYLINE
  5
112
100
AcDbEntity
  8
Layer_1
 62
5
100
AcDbPolyline
 90
4
 70
1
 10
-71.941686
 20
160.709590
 30
0.0
 10
-85.675757
 20
160.709590
 30
0.0
 10
-85.675757
 20
179.455580
 30
0.0
 10
-71.941686
 20
179.455580
 30
0.0
  0
LWPOLYLINE
  5
113
100
AcDbEntity
  8
Layer_1
 62
5
100
AcDbPolyline
 90
4
 70
1
 10
-55.231910
 20
160.709590
 30
0.0
 10
-68.965970
 20
160.709590
 30
0.0
 10
-68.965970
 20
179.455580
 30
0.0
 10
-55.231910
 20
179.455580
 30
0.0
  0
LWPOLYLINE
  5
114
100
AcDbEntity
  8
Layer_1
 62
5
100
AcDbPolyline
 90
4
 70
1
 10
-21.812329
 20
160.709590
 30
0.0
 10
-35.546389
 20
160.709590
 30
0.0
 10
-35.546389
 20
179.455580
 30
0.0
 10
-21.812329
 20
179.455580
 30
0.0
  0
LWPOLYLINE
  5
115
100
AcDbEntity
  8
Layer_1
 62
5
100
AcDbPolyline
 90
4
 70
1
 10
-5.102539
 20
160.709590
 30
0.0
 10
-18.836600
 20
160.709590
 30
0.0
 10
-18.836600
 20
179.455580
 30
0.0
 10
-5.102539
 20
179.455580
 30
0.0
  0
LWPOLYLINE
  5
116
100
AcDbEntity
  8
Layer_1
 62
5
100
AcDbPolyline
 90
4
 70
1
 10
11.607240
 20
160.709590
 30
0.0
 10
-2.126821
 20
160.709590
 30
0.0
 10
-2.126821
 20
179.455580
 30
0.0
 10
11.607240
 20
179.455580
 30
0.0
  0
LWPOLYLINE
  5
117
100
AcDbEntity
  8
Layer_1
 62
5
100
AcDbPolyline
 90
4
 70
1
 10
45.026815
 20
160.709590
 30
0.0
 10
31.292760
 20
160.709590
 30
0.0
 10
31.292760
 20
179.455580
 30
0.0
 10
45.026815
 20
179.455580
 30
0.0
  0
LWPOLYLINE
  5
118
100
AcDbEntity
  8
Layer_1
 62
5
100
AcDbPolyline
 90
4
 70
1
 10
61.736602
 20
160.709590
 30
0.0
 10
48.002545
 20
160.709590
 30
0.0
 10
48.002545
 20
179.455580
 30
0.0
 10
61.736602
 20
179.455580
 30
0.0
  0
LWPOLYLINE
  5
119
100
AcDbEntity
  8
Layer_1
 62
5
100
AcDbPolyline
 90
4
 70
1
 10
78.446391
 20
160.709590
 30
0.0
 10
64.712331
 20
160.709590
 30
0.0
 10
64.712331
 20
179.455580
 30
0.0
 10
78.446391
 20
179.455580
 30
0.0
  0
LWPOLYLINE
  5
11a
100
AcDbEntity
  8
Layer_1
 62
5
100
AcDbPolyline
 90
4
 70
1
 10
111.865960
 20
160.709590
 30
0.0
 10
98.131904
 20
160.709590
 30
0.0
 10
98.131904
 20
179.455580
 30
0.0
 10
111.865960
 20
179.455580
 30
0.0
  0
LWPOLYLINE
  5
11b
100
AcDbEntity
  8
Layer_1
 62
5
100
AcDbPolyline
 90
4
 70
1
 10
128.575750
 20
225.874752
 30
0.0
 10
114.841690
 20
225.874752
 30
0.0
 10
114.841690
 20
244.620746
 30
0.0
 10
128.575750
 20
244.620746
 30
0.0
  0
LWPOLYLINE
  5
11c
100
AcDbEntity
  8
Layer_1
 62
5
100
AcDbPolyline
 90
4
 70
1
 10
95.156178
 20
225.874752
 30
0.0
 10
81.422118
 20
225.874752
 30
0.0
 10
81.422118
 20
244.620746
 30
0.0
 10
95.156178
 20
244.620746
 30
0.0
  0
LWPOLYLINE
  5
11d
100
AcDbEntity
  8
Layer_1
 62
5
100
AcDbPolyline
 90
4
 70
1
 10
28.317029
 20
225.874752
 30
0.0
 10
14.582969
 20
225.874752
 30
0.0
 10
14.582969
 20
244.620746
 30
0.0
 10
28.317029
 20
244.620746
 30
0.0
  0
LWPOLYLINE
  5
11e
100
AcDbEntity
  8
Layer_1
 62
5
100
AcDbPolyline
 90
4
 70
1
 10
-38.522120
 20
225.874752
 30
0.0
 10
-52.256178
 20
225.874752
 30
0.0
 10
-52.256178
 20
244.620746
 30
0.0
 10
-38.522120
 20
244.620746
 30
0.0
  0
LWPOLYLINE
  5
11f
100
AcDbEntity
  8
Layer_1
 62
5
100
AcDbPolyline
 90
4
 70
1
 10
-71.941686
 20
225.874752
 30
0.0
 10
-85.675757
 20
225.874752
 30
0.0
 10
-85.675757
 20
244.620746
 30
0.0
 10
-71.941686
 20
244.620746
 30
0.0
  0
LWPOLYLINE
  5
120
100
AcDbEntity
  8
Layer_1
 62
5
100
AcDbPolyline
 90
4
 70
1
 10
-55.231910
 20
225.874752
 30
0.0
 10
-68.965970
 20
225.874752
 30
0.0
 10
-68.965970
 20
244.620746
 30
0.0
 10
-55.231910
 20
244.620746
 30
0.0
  0
LWPOLYLINE
  5
121
100
AcDbEntity
  8
Layer_1
 62
5
100
AcDbPolyline
 90
4
 70
1
 10
-21.812329
 20
225.874752
 30
0.0
 10
-35.546389
 20
225.874752
 30
0.0
 10
-35.546389
 20
244.620746
 30
0.0
 10
-21.812329
 20
244.620746
 30
0.0
  0
LWPOLYLINE
  5
122
100
AcDbEntity
  8
Layer_1
 62
5
100
AcDbPolyline
 90
4
 70
1
 10
-5.102539
 20
225.874752
 30
0.0
 10
-18.836600
 20
225.874752
 30
0.0
 10
-18.836600
 20
244.620746
 30
0.0
 10
-5.102539
 20
244.620746
 30
0.0
  0
LWPOLYLINE
  5
123
100
AcDbEntity
  8
Layer_1
 62
5
100
AcDbPolyline
 90
4
 70
1
 10
11.607240
 20
225.874752
 30
0.0
 10
-2.126821
 20
225.874752
 30
0.0
 10
-2.126821
 20
244.620746
 30
0.0
 10
11.607240
 20
244.620746
 30
0.0
  0
LWPOLYLINE
  5
124
100
AcDbEntity
  8
Layer_1
 62
5
100
AcDbPolyline
 90
4
 70
1
 10
45.026815
 20
225.874752
 30
0.0
 10
31.292760
 20
225.874752
 30
0.0
 10
31.292760
 20
244.620746
 30
0.0
 10
45.026815
 20
244.620746
 30
0.0
  0
LWPOLYLINE
  5
125
100
AcDbEntity
  8
Layer_1
 62
5
100
AcDbPolyline
 90
4
 70
1
 10
61.736602
 20
225.874752
 30
0.0
 10
48.002545
 20
225.874752
 30
0.0
 10
48.002545
 20
244.620746
 30
0.0
 10
61.736602
 20
244.620746
 30
0.0
  0
LWPOLYLINE
  5
126
100
AcDbEntity
  8
Layer_1
 62
5
100
AcDbPolyline
 90
4
 70
1
 10
78.446391
 20
225.874752
 30
0.0
 10
64.712331
 20
225.874752
 30
0.0
 10
64.712331
 20
244.620746
 30
0.0
 10
78.446391
 20
244.620746
 30
0.0
  0
LWPOLYLINE
  5
127
100
AcDbEntity
  8
Layer_1
 62
5
100
AcDbPolyline
 90
4
 70
1
 10
111.865960
 20
225.874752
 30
0.0
 10
98.131904
 20
225.874752
 30
0.0
 10
98.131904
 20
244.620746
 30
0.0
 10
111.865960
 20
244.620746
 30
0.0
  0
LWPOLYLINE
  5
128
100
AcDbEntity
  8
Layer_1
 62
5
100
AcDbPolyline
 90
4
 70
1
 10
111.865960
 20
204.153032
 30
0.0
 10
98.131904
 20
204.153032
 30
0.0
 10
98.131904
 20
222.899026
 30
0.0
 10
111.865960
 20
222.899026
 30
0.0
  0
LWPOLYLINE
  5
129
100
AcDbEntity
  8
Layer_1
 62
5
100
AcDbPolyline
 90
4
 70
1
 10
78.446391
 20
204.153032
 30
0.0
 10
64.712331
 20
204.153032
 30
0.0
 10
64.712331
 20
222.899026
 30
0.0
 10
78.446391
 20
222.899026
 30
0.0
  0
LWPOLYLINE
  5
12a
100
AcDbEntity
  8
Layer_1
 62
5
100
AcDbPolyline
 90
4
 70
1
 10
61.736602
 20
204.153032
 30
0.0
 10
48.002545
 20
204.153032
 30
0.0
 10
48.002545
 20
222.899026
 30
0.0
 10
61.736602
 20
222.899026
 30
0.0
  0
LWPOLYLINE
  5
12b
100
AcDbEntity
  8
Layer_1
 62
5
100
AcDbPolyline
 90
4
 70
1
 10
45.026815
 20
204.153032
 30
0.0
 10
31.292760
 20
204.153032
 30
0.0
 10
31.292760
 20
222.899026
 30
0.0
 10
45.026815
 20
222.899026
 30
0.0
  0
LWPOLYLINE
  5
12c
100
AcDbEntity
  8
Layer_1
 62
5
100
AcDbPolyline
 90
4
 70
1
 10
11.607240
 20
204.153032
 30
0.0
 10
-2.126821
 20
204.153032
 30
0.0
 10
-2.126821
 20
222.899026
 30
0.0
 10
11.607240
 20
222.899026
 30
0.0
  0
LWPOLYLINE
  5
12d
100
AcDbEntity
  8
Layer_1
 62
5
100
AcDbPolyline
 90
4
 70
1
 10
-5.102539
 20
204.153032
 30
0.0
 10
-18.836600
 20
204.153032
 30
0.0
 10
-18.836600
 20
222.899026
 30
0.0
 10
-5.102539
 20
222.899026
 30
0.0
  0
LWPOLYLINE
  5
12e
100
AcDbEntity
  8
Layer_1
 62
5
100
AcDbPolyline
 90
4
 70
1
 10
-21.812329
 20
204.153032
 30
0.0
 10
-35.546389
 20
204.153032
 30
0.0
 10
-35.546389
 20
222.899026
 30
0.0
 10
-21.812329
 20
222.899026
 30
0.0
  0
LWPOLYLINE
  5
12f
100
AcDbEntity
  8
Layer_1
 62
5
100
AcDbPolyline
 90
4
 70
1
 10
-55.231910
 20
204.153032
 30
0.0
 10
-68.965970
 20
204.153032
 30
0.0
 10
-68.965970
 20
222.899026
 30
0.0
 10
-55.231910
 20
222.899026
 30
0.0
  0
LWPOLYLINE
  5
130
100
AcDbEntity
  8
Layer_1
 62
5
100
AcDbPolyline
 90
4
 70
1
 10
-71.941686
 20
204.153032
 30
0.0
 10
-85.675757
 20
204.153032
 30
0.0
 10
-85.675757
 20
222.899026
 30
0.0
 10
-71.941686
 20
222.899026
 30
0.0
  0
LWPOLYLINE
  5
131
100
AcDbEntity
  8
Layer_1
 62
5
100
AcDbPolyline
 90
4
 70
1
 10
-38.522120
 20
204.153032
 30
0.0
 10
-52.256178
 20
204.153032
 30
0.0
 10
-52.256178
 20
222.899026
 30
0.0
 10
-38.522120
 20
222.899026
 30
0.0
  0
LWPOLYLINE
  5
132
100
AcDbEntity
  8
Layer_1
 62
5
100
AcDbPolyline
 90
4
 70
1
 10
28.317029
 20
204.153032
 30
0.0
 10
14.582969
 20
204.153032
 30
0.0
 10
14.582969
 20
222.899026
 30
0.0
 10
28.317029
 20
222.899026
 30
0.0
  0
LWPOLYLINE
  5
133
100
AcDbEntity
  8
Layer_1
 62
5
100
AcDbPolyline
 90
4
 70
1
 10
95.156178
 20
204.153032
 30
0.0
 10
81.422118
 20
204.153032
 30
0.0
 10
81.422118
 20
222.899026
 30
0.0
 10
95.156178
 20
222.899026
 30
0.0
  0
LWPOLYLINE
  5
134
100
AcDbEntity
  8
Layer_1
 62
5
100
AcDbPolyline
 90
4
 70
1
 10
128.575750
 20
204.153032
 30
0.0
 10
114.841690
 20
204.153032
 30
0.0
 10
114.841690
 20
222.899026
 30
0.0
 10
128.575750
 20
222.899026
 30
0.0
  0
LWPOLYLINE
  5
135
100
AcDbEntity
  8
Layer_1
 62
5
100
AcDbPolyline
 90
4
 70
1
 10
111.865960
 20
182.431310
 30
0.0
 10
98.131904
 20
182.431310
 30
0.0
 10
98.131904
 20
201.177306
 30
0.0
 10
111.865960
 20
201.177306
 30
0.0
  0
LWPOLYLINE
  5
136
100
AcDbEntity
  8
Layer_1
 62
5
100
AcDbPolyline
 90
4
 70
1
 10
78.446391
 20
182.431310
 30
0.0
 10
64.712331
 20
182.431310
 30
0.0
 10
64.712331
 20
201.177306
 30
0.0
 10
78.446391
 20
201.177306
 30
0.0
  0
LWPOLYLINE
  5
137
100
AcDbEntity
  8
Layer_1
 62
5
100
AcDbPolyline
 90
4
 70
1
 10
61.736602
 20
182.431310
 30
0.0
 10
48.002545
 20
182.431310
 30
0.0
 10
48.002545
 20
201.177306
 30
0.0
 10
61.736602
 20
201.177306
 30
0.0
  0
LWPOLYLINE
  5
138
100
AcDbEntity
  8
Layer_1
 62
5
100
AcDbPolyline
 90
4
 70
1
 10
45.026815
 20
182.431310
 30
0.0
 10
31.292760
 20
182.431310
 30
0.0
 10
31.292760
 20
201.177306
 30
0.0
 10
45.026815
 20
201.177306
 30
0.0
  0
LWPOLYLINE
  5
139
100
AcDbEntity
  8
Layer_1
 62
5
100
AcDbPolyline
 90
4
 70
1
 10
11.607240
 20
182.431310
 30
0.0
 10
-2.126821
 20
182.431310
 30
0.0
 10
-2.126821
 20
201.177306
 30
0.0
 10
11.607240
 20
201.177306
 30
0.0
  0
LWPOLYLINE
  5
13a
100
AcDbEntity
  8
Layer_1
 62
5
100
AcDbPolyline
 90
4
 70
1
 10
-5.102539
 20
182.431310
 30
0.0
 10
-18.836600
 20
182.431310
 30
0.0
 10
-18.836600
 20
201.177306
 30
0.0
 10
-5.102539
 20
201.177306
 30
0.0
  0
LWPOLYLINE
  5
13b
100
AcDbEntity
  8
Layer_1
 62
5
100
AcDbPolyline
 90
4
 70
1
 10
-21.812329
 20
182.431310
 30
0.0
 10
-35.546389
 20
182.431310
 30
0.0
 10
-35.546389
 20
201.177306
 30
0.0
 10
-21.812329
 20
201.177306
 30
0.0
  0
LWPOLYLINE
  5
13c
100
AcDbEntity
  8
Layer_1
 62
5
100
AcDbPolyline
 90
4
 70
1
 10
-55.231910
 20
182.431310
 30
0.0
 10
-68.965970
 20
182.431310
 30
0.0
 10
-68.965970
 20
201.177306
 30
0.0
 10
-55.231910
 20
201.177306
 30
0.0
  0
LWPOLYLINE
  5
13d
100
AcDbEntity
  8
Layer_1
 62
5
100
AcDbPolyline
 90
4
 70
1
 10
-71.941686
 20
182.431310
 30
0.0
 10
-85.675757
 20
182.431310
 30
0.0
 10
-85.675757
 20
201.177306
 30
0.0
 10
-71.941686
 20
201.177306
 30
0.0
  0
LWPOLYLINE
  5
13e
100
AcDbEntity
  8
Layer_1
 62
5
100
AcDbPolyline
 90
4
 70
1
 10
-38.522120
 20
182.431310
 30
0.0
 10
-52.256178
 20
182.431310
 30
0.0
 10
-52.256178
 20
201.177306
 30
0.0
 10
-38.522120
 20
201.177306
 30
0.0
  0
LWPOLYLINE
  5
13f
100
AcDbEntity
  8
Layer_1
 62
5
100
AcDbPolyline
 90
4
 70
1
 10
28.317029
 20
182.431310
 30
0.0
 10
14.582969
 20
182.431310
 30
0.0
 10
14.582969
 20
201.177306
 30
0.0
 10
28.317029
 20
201.177306
 30
0.0
  0
LWPOLYLINE
  5
140
100
AcDbEntity
  8
Layer_1
 62
5
100
AcDbPolyline
 90
4
 70
1
 10
95.156178
 20
182.431310
 30
0.0
 10
81.422118
 20
182.431310
 30
0.0
 10
81.422118
 20
201.177306
 30
0.0
 10
95.156178
 20
201.177306
 30
0.0
  0
LWPOLYLINE
  5
141
100
AcDbEntity
  8
Layer_1
 62
5
100
AcDbPolyline
 90
4
 70
1
 10
128.575750
 20
182.431310
 30
0.0
 10
114.841690
 20
182.431310
 30
0.0
 10
114.841690
 20
201.177306
 30
0.0
 10
128.575750
 20
201.177306
 30
0.0
  0
LWPOLYLINE
  5
142
100
AcDbEntity
  8
Layer_1
 62
5
100
AcDbPolyline
 90
4
 70
1
 10
128.575750
 20
73.822710
 30
0.0
 10
114.841690
 20
73.822710
 30
0.0
 10
114.841690
 20
92.568700
 30
0.0
 10
128.575750
 20
92.568700
 30
0.0
  0
LWPOLYLINE
  5
143
100
AcDbEntity
  8
Layer_1
 62
5
100
AcDbPolyline
 90
4
 70
1
 10
95.156178
 20
73.822710
 30
0.0
 10
81.422118
 20
73.822710
 30
0.0
 10
81.422118
 20
92.568700
 30
0.0
 10
95.156178
 20
92.568700
 30
0.0
  0
LWPOLYLINE
  5
144
100
AcDbEntity
  8
Layer_1
 62
5
100
AcDbPolyline
 90
4
 70
1
 10
28.317029
 20
73.822710
 30
0.0
 10
14.582969
 20
73.822710
 30
0.0
 10
14.582969
 20
92.568700
 30
0.0
 10
28.317029
 20
92.568700
 30
0.0
  0
LWPOLYLINE
  5
145
100
AcDbEntity
  8
Layer_1
 62
5
100
AcDbPolyline
 90
4
 70
1
 10
-38.522120
 20
73.822710
 30
0.0
 10
-52.256178
 20
73.822710
 30
0.0
 10
-52.256178
 20
92.568700
 30
0.0
 10
-38.522120
 20
92.568700
 30
0.0
  0
LWPOLYLINE
  5
146
100
AcDbEntity
  8
Layer_1
 62
5
100
AcDbPolyline
 90
4
 70
1
 10
-71.941686
 20
73.822710
 30
0.0
 10
-85.675757
 20
73.822710
 30
0.0
 10
-85.675757
 20
92.568700
 30
0.0
 10
-71.941686
 20
92.568700
 30
0.0
  0
LWPOLYLINE
  5
147
100
AcDbEntity
  8
Layer_1
 62
5
100
AcDbPolyline
 90
4
 70
1
 10
-55.231910
 20
73.822710
 30
0.0
 10
-68.965970
 20
73.822710
 30
0.0
 10
-68.965970
 20
92.568700
 30
0.0
 10
-55.231910
 20
92.568700
 30
0.0
  0
LWPOLYLINE
  5
148
100
AcDbEntity
  8
Layer_1
 62
5
100
AcDbPolyline
 90
4
 70
1
 10
-21.812329
 20
73.822710
 30
0.0
 10
-35.546389
 20
73.822710
 30
0.0
 10
-35.546389
 20
92.568700
 30
0.0
 10
-21.812329
 20
92.568700
 30
0.0
  0
LWPOLYLINE
  5
149
100
AcDbEntity
  8
Layer_1
 62
5
100
AcDbPolyline
 90
4
 70
1
 10
-5.102539
 20
73.822710
 30
0.0
 10
-18.836600
 20
73.822710
 30
0.0
 10
-18.836600
 20
92.568700
 30
0.0
 10
-5.102539
 20
92.568700
 30
0.0
  0
LWPOLYLINE
  5
14a
100
AcDbEntity
  8
Layer_1
 62
5
100
AcDbPolyline
 90
4
 70
1
 10
11.607240
 20
73.822710
 30
0.0
 10
-2.126821
 20
73.822710
 30
0.0
 10
-2.126821
 20
92.568700
 30
0.0
 10
11.607240
 20
92.568700
 30
0.0
  0
LWPOLYLINE
  5
14b
100
AcDbEntity
  8
Layer_1
 62
5
100
AcDbPolyline
 90
4
 70
1
 10
45.026815
 20
73.822710
 30
0.0
 10
31.292760
 20
73.822710
 30
0.0
 10
31.292760
 20
92.568700
 30
0.0
 10
45.026815
 20
92.568700
 30
0.0
  0
LWPOLYLINE
  5
14c
100
AcDbEntity
  8
Layer_1
 62
5
100
AcDbPolyline
 90
4
 70
1
 10
61.736602
 20
73.822710
 30
0.0
 10
48.002545
 20
73.822710
 30
0.0
 10
48.002545
 20
92.568700
 30
0.0
 10
61.736602
 20
92.568700
 30
0.0
  0
LWPOLYLINE
  5
14d
100
AcDbEntity
  8
Layer_1
 62
5
100
AcDbPolyline
 90
4
 70
1
 10
78.446391
 20
73.822710
 30
0.0
 10
64.712331
 20
73.822710
 30
0.0
 10
64.712331
 20
92.568700
 30
0.0
 10
78.446391
 20
92.568700
 30
0.0
  0
LWPOLYLINE
  5
14e
100
AcDbEntity
  8
Layer_1
 62
5
100
AcDbPolyline
 90
4
 70
1
 10
111.865960
 20
73.822710
 30
0.0
 10
98.131904
 20
73.822710
 30
0.0
 10
98.131904
 20
92.568700
 30
0.0
 10
111.865960
 20
92.568700
 30
0.0
  0
LWPOLYLINE
  5
14f
100
AcDbEntity
  8
Layer_1
 62
5
100
AcDbPolyline
 90
4
 70
1
 10
128.575750
 20
95.544430
 30
0.0
 10
114.841690
 20
95.544430
 30
0.0
 10
114.841690
 20
114.290430
 30
0.0
 10
128.575750
 20
114.290430
 30
0.0
  0
LWPOLYLINE
  5
150
100
AcDbEntity
  8
Layer_1
 62
5
100
AcDbPolyline
 90
4
 70
1
 10
95.156178
 20
95.544430
 30
0.0
 10
81.422118
 20
95.544430
 30
0.0
 10
81.422118
 20
114.290430
 30
0.0
 10
95.156178
 20
114.290430
 30
0.0
  0
LWPOLYLINE
  5
151
100
AcDbEntity
  8
Layer_1
 62
5
100
AcDbPolyline
 90
4
 70
1
 10
28.317029
 20
95.544430
 30
0.0
 10
14.582969
 20
95.544430
 30
0.0
 10
14.582969
 20
114.290430
 30
0.0
 10
28.317029
 20
114.290430
 30
0.0
  0
LWPOLYLINE
  5
152
100
AcDbEntity
  8
Layer_1
 62
5
100
AcDbPolyline
 90
4
 70
1
 10
-38.522120
 20
95.544430
 30
0.0
 10
-52.256178
 20
95.544430
 30
0.0
 10
-52.256178
 20
114.290430
 30
0.0
 10
-38.522120
 20
114.290430
 30
0.0
  0
LWPOLYLINE
  5
153
100
AcDbEntity
  8
Layer_1
 62
5
100
AcDbPolyline
 90
4
 70
1
 10
-71.941686
 20
95.544430
 30
0.0
 10
-85.675757
 20
95.544430
 30
0.0
 10
-85.675757
 20
114.290430
 30
0.0
 10
-71.941686
 20
114.290430
 30
0.0
  0
LWPOLYLINE
  5
154
100
AcDbEntity
  8
Layer_1
 62
5
100
AcDbPolyline
 90
4
 70
1
 10
-55.231910
 20
95.544430
 30
0.0
 10
-68.965970
 20
95.544430
 30
0.0
 10
-68.965970
 20
114.290430
 30
0.0
 10
-55.231910
 20
114.290430
 30
0.0
  0
LWPOLYLINE
  5
155
100
AcDbEntity
  8
Layer_1
 62
5
100
AcDbPolyline
 90
4
 70
1
 10
-21.812329
 20
95.544430
 30
0.0
 10
-35.546389
 20
95.544430
 30
0.0
 10
-35.546389
 20
114.290430
 30
0.0
 10
-21.812329
 20
114.290430
 30
0.0
  0
LWPOLYLINE
  5
156
100
AcDbEntity
  8
Layer_1
 62
5
100
AcDbPolyline
 90
4
 70
1
 10
-5.102539
 20
95.544430
 30
0.0
 10
-18.836600
 20
95.544430
 30
0.0
 10
-18.836600
 20
114.290430
 30
0.0
 10
-5.102539
 20
114.290430
 30
0.0
  0
LWPOLYLINE
  5
157
100
AcDbEntity
  8
Layer_1
 62
5
100
AcDbPolyline
 90
4
 70
1
 10
11.607240
 20
95.544430
 30
0.0
 10
-2.126821
 20
95.544430
 30
0.0
 10
-2.126821
 20
114.290430
 30
0.0
 10
11.607240
 20
114.290430
 30
0.0
  0
LWPOLYLINE
  5
158
100
AcDbEntity
  8
Layer_1
 62
5
100
AcDbPolyline
 90
4
 70
1
 10
45.026815
 20
95.544430
 30
0.0
 10
31.292760
 20
95.544430
 30
0.0
 10
31.292760
 20
114.290430
 30
0.0
 10
45.026815
 20
114.290430
 30
0.0
  0
LWPOLYLINE
  5
159
100
AcDbEntity
  8
Layer_1
 62
5
100
AcDbPolyline
 90
4
 70
1
 10
61.736602
 20
95.544430
 30
0.0
 10
48.002545
 20
95.544430
 30
0.0
 10
48.002545
 20
114.290430
 30
0.0
 10
61.736602
 20
114.290430
 30
0.0
  0
LWPOLYLINE
  5
15a
100
AcDbEntity
  8
Layer_1
 62
5
100
AcDbPolyline
 90
4
 70
1
 10
78.446391
 20
95.544430
 30
0.0
 10
64.712331
 20
95.544430
 30
0.0
 10
64.712331
 20
114.290430
 30
0.0
 10
78.446391
 20
114.290430
 30
0.0
  0
LWPOLYLINE
  5
15b
100
AcDbEntity
  8
Layer_1
 62
5
100
AcDbPolyline
 90
4
 70
1
 10
111.865960
 20
95.544430
 30
0.0
 10
98.131904
 20
95.544430
 30
0.0
 10
98.131904
 20
114.290430
 30
0.0
 10
111.865960
 20
114.290430
 30
0.0
  0
LWPOLYLINE
  5
15c
100
AcDbEntity
  8
Layer_1
 62
5
100
AcDbPolyline
 90
4
 70
1
 10
111.865960
 20
117.266150
 30
0.0
 10
98.131904
 20
117.266150
 30
0.0
 10
98.131904
 20
136.012150
 30
0.0
 10
111.865960
 20
136.012150
 30
0.0
  0
LWPOLYLINE
  5
15d
100
AcDbEntity
  8
Layer_1
 62
5
100
AcDbPolyline
 90
4
 70
1
 10
78.446391
 20
117.266150
 30
0.0
 10
64.712331
 20
117.266150
 30
0.0
 10
64.712331
 20
136.012150
 30
0.0
 10
78.446391
 20
136.012150
 30
0.0
  0
LWPOLYLINE
  5
15e
100
AcDbEntity
  8
Layer_1
 62
5
100
AcDbPolyline
 90
4
 70
1
 10
61.736602
 20
117.266150
 30
0.0
 10
48.002545
 20
117.266150
 30
0.0
 10
48.002545
 20
136.012150
 30
0.0
 10
61.736602
 20
136.012150
 30
0.0
  0
LWPOLYLINE
  5
15f
100
AcDbEntity
  8
Layer_1
 62
5
100
AcDbPolyline
 90
4
 70
1
 10
45.026815
 20
117.266150
 30
0.0
 10
31.292760
 20
117.266150
 30
0.0
 10
31.292760
 20
136.012150
 30
0.0
 10
45.026815
 20
136.012150
 30
0.0
  0
LWPOLYLINE
  5
160
100
AcDbEntity
  8
Layer_1
 62
5
100
AcDbPolyline
 90
4
 70
1
 10
11.607240
 20
117.266150
 30
0.0
 10
-2.126821
 20
117.266150
 30
0.0
 10
-2.126821
 20
136.012150
 30
0.0
 10
11.607240
 20
136.012150
 30
0.0
  0
LWPOLYLINE
  5
161
100
AcDbEntity
  8
Layer_1
 62
5
100
AcDbPolyline
 90
4
 70
1
 10
-5.102539
 20
117.266150
 30
0.0
 10
-18.836600
 20
117.266150
 30
0.0
 10
-18.836600
 20
136.012150
 30
0.0
 10
-5.102539
 20
136.012150
 30
0.0
  0
LWPOLYLINE
  5
162
100
AcDbEntity
  8
Layer_1
 62
5
100
AcDbPolyline
 90
4
 70
1
 10
-21.812329
 20
117.266150
 30
0.0
 10
-35.546389
 20
117.266150
 30
0.0
 10
-35.546389
 20
136.012150
 30
0.0
 10
-21.812329
 20
136.012150
 30
0.0
  0
LWPOLYLINE
  5
163
100
AcDbEntity
  8
Layer_1
 62
5
100
AcDbPolyline
 90
4
 70
1
 10
-55.231910
 20
117.266150
 30
0.0
 10
-68.965970
 20
117.266150
 30
0.0
 10
-68.965970
 20
136.012150
 30
0.0
 10
-55.231910
 20
136.012150
 30
0.0
  0
LWPOLYLINE
  5
164
100
AcDbEntity
  8
Layer_1
 62
5
100
AcDbPolyline
 90
4
 70
1
 10
-71.941686
 20
117.266150
 30
0.0
 10
-85.675757
 20
117.266150
 30
0.0
 10
-85.675757
 20
136.012150
 30
0.0
 10
-71.941686
 20
136.012150
 30
0.0
  0
LWPOLYLINE
  5
165
100
AcDbEntity
  8
Layer_1
 62
5
100
AcDbPolyline
 90
4
 70
1
 10
-38.522120
 20
117.266150
 30
0.0
 10
-52.256178
 20
117.266150
 30
0.0
 10
-52.256178
 20
136.012150
 30
0.0
 10
-38.522120
 20
136.012150
 30
0.0
  0
LWPOLYLINE
  5
166
100
AcDbEntity
  8
Layer_1
 62
5
100
AcDbPolyline
 90
4
 70
1
 10
28.317029
 20
117.266150
 30
0.0
 10
14.582969
 20
117.266150
 30
0.0
 10
14.582969
 20
136.012150
 30
0.0
 10
28.317029
 20
136.012150
 30
0.0
  0
LWPOLYLINE
  5
167
100
AcDbEntity
  8
Layer_1
 62
5
100
AcDbPolyline
 90
4
 70
1
 10
95.156178
 20
117.266150
 30
0.0
 10
81.422118
 20
117.266150
 30
0.0
 10
81.422118
 20
136.012150
 30
0.0
 10
95.156178
 20
136.012150
 30
0.0
  0
LWPOLYLINE
  5
168
100
AcDbEntity
  8
Layer_1
 62
5
100
AcDbPolyline
 90
4
 70
1
 10
128.575750
 20
117.266150
 30
0.0
 10
114.841690
 20
117.266150
 30
0.0
 10
114.841690
 20
136.012150
 30
0.0
 10
128.575750
 20
136.012150
 30
0.0
  0
LWPOLYLINE
  5
169
100
AcDbEntity
  8
Layer_1
 62
5
100
AcDbPolyline
 90
4
 70
1
 10
111.865960
 20
52.100990
 30
0.0
 10
98.131904
 20
52.100990
 30
0.0
 10
98.131904
 20
70.846980
 30
0.0
 10
111.865960
 20
70.846980
 30
0.0
  0
LWPOLYLINE
  5
16a
100
AcDbEntity
  8
Layer_1
 62
5
100
AcDbPolyline
 90
4
 70
1
 10
78.446391
 20
52.100990
 30
0.0
 10
64.712331
 20
52.100990
 30
0.0
 10
64.712331
 20
70.846980
 30
0.0
 10
78.446391
 20
70.846980
 30
0.0
  0
LWPOLYLINE
  5
16b
100
AcDbEntity
  8
Layer_1
 62
5
100
AcDbPolyline
 90
4
 70
1
 10
61.736602
 20
52.100990
 30
0.0
 10
48.002545
 20
52.100990
 30
0.0
 10
48.002545
 20
70.846980
 30
0.0
 10
61.736602
 20
70.846980
 30
0.0
  0
LWPOLYLINE
  5
16c
100
AcDbEntity
  8
Layer_1
 62
5
100
AcDbPolyline
 90
4
 70
1
 10
45.026815
 20
52.100990
 30
0.0
 10
31.292760
 20
52.100990
 30
0.0
 10
31.292760
 20
70.846980
 30
0.0
 10
45.026815
 20
70.846980
 30
0.0
  0
LWPOLYLINE
  5
16d
100
AcDbEntity
  8
Layer_1
 62
5
100
AcDbPolyline
 90
4
 70
1
 10
11.607240
 20
52.100990
 30
0.0
 10
-2.126821
 20
52.100990
 30
0.0
 10
-2.126821
 20
70.846980
 30
0.0
 10
11.607240
 20
70.846980
 30
0.0
  0
LWPOLYLINE
  5
16e
100
AcDbEntity
  8
Layer_1
 62
5
100
AcDbPolyline
 90
4
 70
1
 10
-5.102539
 20
52.100990
 30
0.0
 10
-18.836600
 20
52.100990
 30
0.0
 10
-18.836600
 20
70.846980
 30
0.0
 10
-5.102539
 20
70.846980
 30
0.0
  0
LWPOLYLINE
  5
16f
100
AcDbEntity
  8
Layer_1
 62
5
100
AcDbPolyline
 90
4
 70
1
 10
-21.812329
 20
52.100990
 30
0.0
 10
-35.546389
 20
52.100990
 30
0.0
 10
-35.546389
 20
70.846980
 30
0.0
 10
-21.812329
 20
70.846980
 30
0.0
  0
LWPOLYLINE
  5
170
100
AcDbEntity
  8
Layer_1
 62
5
100
AcDbPolyline
 90
4
 70
1
 10
-55.231910
 20
52.100990
 30
0.0
 10
-68.965970
 20
52.100990
 30
0.0
 10
-68.965970
 20
70.846980
 30
0.0
 10
-55.231910
 20
70.846980
 30
0.0
  0
LWPOLYLINE
  5
171
100
AcDbEntity
  8
Layer_1
 62
5
100
AcDbPolyline
 90
4
 70
1
 10
-71.941686
 20
52.100990
 30
0.0
 10
-85.675757
 20
52.100990
 30
0.0
 10
-85.675757
 20
70.846980
 30
0.0
 10
-71.941686
 20
70.846980
 30
0.0
  0
LWPOLYLINE
  5
172
100
AcDbEntity
  8
Layer_1
 62
5
100
AcDbPolyline
 90
4
 70
1
 10
-38.522120
 20
52.100990
 30
0.0
 10
-52.256178
 20
52.100990
 30
0.0
 10
-52.256178
 20
70.846980
 30
0.0
 10
-38.522120
 20
70.846980
 30
0.0
  0
LWPOLYLINE
  5
173
100
AcDbEntity
  8
Layer_1
 62
5
100
AcDbPolyline
 90
4
 70
1
 10
28.317029
 20
52.100990
 30
0.0
 10
14.582969
 20
52.100990
 30
0.0
 10
14.582969
 20
70.846980
 30
0.0
 10
28.317029
 20
70.846980
 30
0.0
  0
LWPOLYLINE
  5
174
100
AcDbEntity
  8
Layer_1
 62
5
100
AcDbPolyline
 90
4
 70
1
 10
95.156178
 20
52.100990
 30
0.0
 10
81.422118
 20
52.100990
 30
0.0
 10
81.422118
 20
70.846980
 30
0.0
 10
95.156178
 20
70.846980
 30
0.0
  0
LWPOLYLINE
  5
175
100
AcDbEntity
  8
Layer_1
 62
5
100
AcDbPolyline
 90
4
 70
1
 10
128.575750
 20
52.100990
 30
0.0
 10
114.841690
 20
52.100990
 30
0.0
 10
114.841690
 20
70.846980
 30
0.0
 10
128.575750
 20
70.846980
 30
0.0
  0
LWPOLYLINE
  5
176
100
AcDbEntity
  8
Layer_1
 62
5
100
AcDbPolyline
 90
4
 70
1
 10
111.865960
 20
30.379280
 30
0.0
 10
98.131904
 20
30.379280
 30
0.0
 10
98.131904
 20
49.125270
 30
0.0
 10
111.865960
 20
49.125270
 30
0.0
  0
LWPOLYLINE
  5
177
100
AcDbEntity
  8
Layer_1
 62
5
100
AcDbPolyline
 90
4
 70
1
 10
78.446391
 20
30.379280
 30
0.0
 10
64.712331
 20
30.379280
 30
0.0
 10
64.712331
 20
49.125270
 30
0.0
 10
78.446391
 20
49.125270
 30
0.0
  0
LWPOLYLINE
  5
178
100
AcDbEntity
  8
Layer_1
 62
5
100
AcDbPolyline
 90
4
 70
1
 10
61.736602
 20
30.379280
 30
0.0
 10
48.002545
 20
30.379280
 30
0.0
 10
48.002545
 20
49.125270
 30
0.0
 10
61.736602
 20
49.125270
 30
0.0
  0
LWPOLYLINE
  5
179
100
AcDbEntity
  8
Layer_1
 62
5
100
AcDbPolyline
 90
4
 70
1
 10
45.026815
 20
30.379280
 30
0.0
 10
31.292760
 20
30.379280
 30
0.0
 10
31.292760
 20
49.125270
 30
0.0
 10
45.026815
 20
49.125270
 30
0.0
  0
LWPOLYLINE
  5
17a
100
AcDbEntity
  8
Layer_1
 62
5
100
AcDbPolyline
 90
4
 70
1
 10
11.607240
 20
30.379280
 30
0.0
 10
-2.126821
 20
30.379280
 30
0.0
 10
-2.126821
 20
49.125270
 30
0.0
 10
11.607240
 20
49.125270
 30
0.0
  0
LWPOLYLINE
  5
17b
100
AcDbEntity
  8
Layer_1
 62
5
100
AcDbPolyline
 90
4
 70
1
 10
-5.102539
 20
30.379280
 30
0.0
 10
-18.836600
 20
30.379280
 30
0.0
 10
-18.836600
 20
49.125270
 30
0.0
 10
-5.102539
 20
49.125270
 30
0.0
  0
LWPOLYLINE
  5
17c
100
AcDbEntity
  8
Layer_1
 62
5
100
AcDbPolyline
 90
4
 70
1
 10
-21.812329
 20
30.379280
 30
0.0
 10
-35.546389
 20
30.379280
 30
0.0
 10
-35.546389
 20
49.125270
 30
0.0
 10
-21.812329
 20
49.125270
 30
0.0
  0
LWPOLYLINE
  5
17d
100
AcDbEntity
  8
Layer_1
 62
5
100
AcDbPolyline
 90
4
 70
1
 10
-55.231910
 20
30.379280
 30
0.0
 10
-68.965970
 20
30.379280
 30
0.0
 10
-68.965970
 20
49.125270
 30
0.0
 10
-55.231910
 20
49.125270
 30
0.0
  0
LWPOLYLINE
  5
17e
100
AcDbEntity
  8
Layer_1
 62
5
100
AcDbPolyline
 90
4
 70
1
 10
-71.941686
 20
30.379280
 30
0.0
 10
-85.675757
 20
30.379280
 30
0.0
 10
-85.675757
 20
49.125270
 30
0.0
 10
-71.941686
 20
49.125270
 30
0.0
  0
LWPOLYLINE
  5
17f
100
AcDbEntity
  8
Layer_1
 62
5
100
AcDbPolyline
 90
4
 70
1
 10
-38.522120
 20
30.379280
 30
0.0
 10
-52.256178
 20
30.379280
 30
0.0
 10
-52.256178
 20
49.125270
 30
0.0
 10
-38.522120
 20
49.125270
 30
0.0
  0
LWPOLYLINE
  5
180
100
AcDbEntity
  8
Layer_1
 62
5
100
AcDbPolyline
 90
4
 70
1
 10
28.317029
 20
30.379280
 30
0.0
 10
14.582969
 20
30.379280
 30
0.0
 10
14.582969
 20
49.125270
 30
0.0
 10
28.317029
 20
49.125270
 30
0.0
  0
LWPOLYLINE
  5
181
100
AcDbEntity
  8
Layer_1
 62
5
100
AcDbPolyline
 90
4
 70
1
 10
95.156178
 20
30.379280
 30
0.0
 10
81.422118
 20
30.379280
 30
0.0
 10
81.422118
 20
49.125270
 30
0.0
 10
95.156178
 20
49.125270
 30
0.0
  0
LWPOLYLINE
  5
182
100
AcDbEntity
  8
Layer_1
 62
5
100
AcDbPolyline
 90
4
 70
1
 10
128.575750
 20
30.379280
 30
0.0
 10
114.841690
 20
30.379280
 30
0.0
 10
114.841690
 20
49.125270
 30
0.0
 10
128.575750
 20
49.125270
 30
0.0
  0
ENDSEC
  0
SECTION
  2
OBJECTS
  0
DICTIONARY
  5
C
330
0
100
AcDbDictionary
  3
ACAD_GROUP
350
D
  3
ACAD_MLINESTYLE
350
17
  0
DICTIONARY
  5
D
330
C
100
AcDbDictionary
  0
DICTIONARY
  5
1A
330
C
100
AcDbDictionary
  0
DICTIONARY
  5
17
330
C
100
AcDbDictionary
  3
STANDARD
350
18
  0
DICTIONARY
  5
19
330
C
100
AcDbDictionary
  0
ENDSEC
  0
EOF
